<svg xmlns="http://www.w3.org/2000/svg" width="956" height="440" viewBox="0 0 956.0 440.0" font-family="-apple-system, Helvetica, sans-serif">
<rect width="100%" height="100%" fill="#101014"/>
<rect x="62.0" y="0.0" width="832.0" height="419.0" fill="none" stroke="#2a2a33" stroke-dasharray="6 6"/>
<rect x="291.8" y="0.0" width="372.4" height="209.5" fill="#23324a"/>
<text x="478.0" y="104.8" fill="#4d6690" font-size="22" text-anchor="middle">TV</text>
<rect x="291.8" y="209.5" width="372.4" height="209.5" fill="#23324a"/>
<text x="478.0" y="314.2" fill="#4d6690" font-size="22" text-anchor="middle">GamePad</text>
<rect x="291.8" y="209.5" width="372.4" height="209.5" rx="6.0" fill="none" stroke="#4d6690" stroke-width="1.5" opacity="0.12"/>
<rect x="72.1" y="10.1" width="116.4" height="58.2" rx="11.9" fill="#8d8d99" stroke="#b5b5c0" stroke-width="1.5" opacity="0.9"/>
<text x="130.3" y="48.0" fill="#111116" font-size="24.4" font-weight="600" text-anchor="middle" opacity="1.0">ZL</text>
<rect x="201.2" y="10.1" width="116.4" height="58.2" rx="11.9" fill="#8d8d99" stroke="#b5b5c0" stroke-width="1.5" opacity="0.9"/>
<text x="259.3" y="48.0" fill="#111116" font-size="24.4" font-weight="600" text-anchor="middle" opacity="1.0">L</text>
<rect x="767.5" y="10.1" width="116.4" height="58.2" rx="11.9" fill="#8d8d99" stroke="#b5b5c0" stroke-width="1.5" opacity="0.9"/>
<text x="825.7" y="48.0" fill="#111116" font-size="24.4" font-weight="600" text-anchor="middle" opacity="1.0">ZR</text>
<rect x="638.5" y="10.1" width="116.4" height="58.2" rx="11.9" fill="#8d8d99" stroke="#b5b5c0" stroke-width="1.5" opacity="0.9"/>
<text x="696.7" y="48.0" fill="#111116" font-size="24.4" font-weight="600" text-anchor="middle" opacity="1.0">R</text>
<circle cx="412.2" cy="39.2" r="19.6" fill="#6e6e7a" stroke="#9a9aa6" stroke-width="1.5" opacity="0.9"/>
<text x="412.2" y="45.1" fill="#f2f2f6" font-size="16.4" font-weight="600" text-anchor="middle" opacity="1.0">−</text>
<circle cx="478.0" cy="39.2" r="19.6" fill="#6e6e7a" stroke="#9a9aa6" stroke-width="1.5" opacity="0.9"/>
<text x="478.0" y="45.1" fill="#f2f2f6" font-size="16.4" font-weight="600" text-anchor="middle" opacity="1.0">⌂</text>
<circle cx="543.8" cy="39.2" r="19.6" fill="#6e6e7a" stroke="#9a9aa6" stroke-width="1.5" opacity="0.9"/>
<text x="543.8" y="45.1" fill="#f2f2f6" font-size="16.4" font-weight="600" text-anchor="middle" opacity="1.0">+</text>
<rect x="156.6" y="95.7" width="25.3" height="25.3" rx="7.1" fill="#c9c9d2" stroke="#ededf3" stroke-width="1.5" opacity="0.9"/>
<text x="169.3" y="112.2" fill="#24242c" font-size="10.6" font-weight="600" text-anchor="middle" opacity="1.0">▲</text>
<rect x="156.6" y="158.5" width="25.3" height="25.3" rx="7.1" fill="#c9c9d2" stroke="#ededf3" stroke-width="1.5" opacity="0.9"/>
<text x="169.3" y="174.9" fill="#24242c" font-size="10.6" font-weight="600" text-anchor="middle" opacity="1.0">▼</text>
<rect x="125.2" y="127.1" width="25.3" height="25.3" rx="7.1" fill="#c9c9d2" stroke="#ededf3" stroke-width="1.5" opacity="0.9"/>
<text x="137.9" y="143.6" fill="#24242c" font-size="10.6" font-weight="600" text-anchor="middle" opacity="1.0">◀</text>
<rect x="188.0" y="127.1" width="25.3" height="25.3" rx="7.1" fill="#c9c9d2" stroke="#ededf3" stroke-width="1.5" opacity="0.9"/>
<text x="200.6" y="143.6" fill="#24242c" font-size="10.6" font-weight="600" text-anchor="middle" opacity="1.0">▶</text>
<rect x="62.0" y="201.0" width="229.8" height="218.0" rx="0.0" fill="#7fa8ff" stroke="#7fa8ff" stroke-width="1.5" opacity="0.12"/>
<rect x="478.0" y="78.4" width="416.0" height="101.2" rx="0.0" fill="#7fa8ff" stroke="#7fa8ff" stroke-width="1.5" opacity="0.12"/>
<circle cx="781.3" cy="243.0" r="25.3" fill="#e9e9ef" stroke="#ffffff" stroke-width="1.5" opacity="0.3"/>
<text x="781.3" y="250.6" fill="#24242c" font-size="21.3" font-weight="600" text-anchor="middle" opacity="0.5">X</text>
<circle cx="718.5" cy="305.7" r="25.3" fill="#e9e9ef" stroke="#ffffff" stroke-width="1.5" opacity="0.3"/>
<text x="718.5" y="313.3" fill="#24242c" font-size="21.3" font-weight="600" text-anchor="middle" opacity="0.5">Y</text>
<circle cx="844.0" cy="305.7" r="25.3" fill="#e9e9ef" stroke="#ffffff" stroke-width="1.5" opacity="0.3"/>
<text x="844.0" y="313.3" fill="#24242c" font-size="21.3" font-weight="600" text-anchor="middle" opacity="0.5">A</text>
<circle cx="781.3" cy="368.4" r="25.3" fill="#e9e9ef" stroke="#ffffff" stroke-width="1.5" opacity="0.3"/>
<text x="781.3" y="376.1" fill="#24242c" font-size="21.3" font-weight="600" text-anchor="middle" opacity="0.5">B</text>
<circle cx="87.3" cy="103.7" r="19.6" fill="#6e6e7a" stroke="#9a9aa6" stroke-width="1.5" opacity="0.9"/>
<text x="87.3" y="109.6" fill="#f2f2f6" font-size="16.4" font-weight="600" text-anchor="middle" opacity="1.0">FLK</text>
<text x="12" y="430.0" fill="#8888a0" font-size="13">Anchor - iPhone 16 Pro Max - stacked</text>
</svg>
