<svg xmlns="http://www.w3.org/2000/svg" width="834" height="1194" viewBox="0 0 834.0 1194.0" font-family="-apple-system, Helvetica, sans-serif">
<rect width="100%" height="100%" fill="#101014"/>
<rect x="0.0" y="24.0" width="834.0" height="1150.0" fill="none" stroke="#2a2a33" stroke-dasharray="6 6"/>
<rect x="0.0" y="24.0" width="834.0" height="469.1" fill="#23324a"/>
<text x="417.0" y="258.6" fill="#4d6690" font-size="22" text-anchor="middle">GamePad</text>
<rect x="0.0" y="24.0" width="834.0" height="469.1" rx="6.0" fill="none" stroke="#4d6690" stroke-width="1.5" opacity="0.12"/>
<rect x="14.4" y="38.4" width="104.1" height="82.8" rx="16.9" fill="#8d8d99" stroke="#b5b5c0" stroke-width="1.5" opacity="0.9"/>
<text x="66.5" y="89.2" fill="#111116" font-size="26.0" font-weight="600" text-anchor="middle" opacity="1.0">ZL</text>
<rect x="136.5" y="38.4" width="104.1" height="82.8" rx="16.9" fill="#8d8d99" stroke="#b5b5c0" stroke-width="1.5" opacity="0.9"/>
<text x="188.6" y="89.2" fill="#111116" font-size="26.0" font-weight="600" text-anchor="middle" opacity="1.0">L</text>
<rect x="715.5" y="38.4" width="104.1" height="82.8" rx="16.9" fill="#8d8d99" stroke="#b5b5c0" stroke-width="1.5" opacity="0.9"/>
<text x="767.5" y="89.2" fill="#111116" font-size="26.0" font-weight="600" text-anchor="middle" opacity="1.0">ZR</text>
<rect x="593.4" y="38.4" width="104.1" height="82.8" rx="16.9" fill="#8d8d99" stroke="#b5b5c0" stroke-width="1.5" opacity="0.9"/>
<text x="645.4" y="89.2" fill="#111116" font-size="26.0" font-weight="600" text-anchor="middle" opacity="1.0">R</text>
<circle cx="323.4" cy="79.8" r="27.8" fill="#6e6e7a" stroke="#9a9aa6" stroke-width="1.5" opacity="0.9"/>
<text x="323.4" y="88.2" fill="#f2f2f6" font-size="23.4" font-weight="600" text-anchor="middle" opacity="1.0">−</text>
<circle cx="417.0" cy="79.8" r="27.8" fill="#6e6e7a" stroke="#9a9aa6" stroke-width="1.5" opacity="0.9"/>
<text x="417.0" y="88.2" fill="#f2f2f6" font-size="23.4" font-weight="600" text-anchor="middle" opacity="1.0">⌂</text>
<circle cx="510.6" cy="79.8" r="27.8" fill="#6e6e7a" stroke="#9a9aa6" stroke-width="1.5" opacity="0.9"/>
<text x="510.6" y="88.2" fill="#f2f2f6" font-size="23.4" font-weight="600" text-anchor="middle" opacity="1.0">+</text>
<rect x="134.6" y="553.0" width="36.0" height="36.0" rx="10.1" fill="#c9c9d2" stroke="#ededf3" stroke-width="1.5" opacity="0.9"/>
<text x="152.6" y="576.5" fill="#24242c" font-size="15.1" font-weight="600" text-anchor="middle" opacity="1.0">▲</text>
<rect x="134.6" y="642.3" width="36.0" height="36.0" rx="10.1" fill="#c9c9d2" stroke="#ededf3" stroke-width="1.5" opacity="0.9"/>
<text x="152.6" y="665.8" fill="#24242c" font-size="15.1" font-weight="600" text-anchor="middle" opacity="1.0">▼</text>
<rect x="90.0" y="597.7" width="36.0" height="36.0" rx="10.1" fill="#c9c9d2" stroke="#ededf3" stroke-width="1.5" opacity="0.9"/>
<text x="108.0" y="621.1" fill="#24242c" font-size="15.1" font-weight="600" text-anchor="middle" opacity="1.0">◀</text>
<rect x="179.3" y="597.7" width="36.0" height="36.0" rx="10.1" fill="#c9c9d2" stroke="#ededf3" stroke-width="1.5" opacity="0.9"/>
<text x="197.3" y="621.1" fill="#24242c" font-size="15.1" font-weight="600" text-anchor="middle" opacity="1.0">▶</text>
<rect x="0.0" y="738.2" width="350.3" height="435.8" rx="0.0" fill="#7fa8ff" stroke="#7fa8ff" stroke-width="1.5" opacity="0.12"/>
<rect x="417.0" y="135.6" width="0.0" height="253.0" rx="0.0" fill="#7fa8ff" stroke="#7fa8ff" stroke-width="1.5" opacity="0.12"/>
<circle cx="633.1" cy="794.2" r="36.0" fill="#e9e9ef" stroke="#ffffff" stroke-width="1.5" opacity="0.3"/>
<text x="633.1" y="803.6" fill="#24242c" font-size="26.0" font-weight="600" text-anchor="middle" opacity="0.5">X</text>
<circle cx="543.8" cy="883.5" r="36.0" fill="#e9e9ef" stroke="#ffffff" stroke-width="1.5" opacity="0.3"/>
<text x="543.8" y="892.8" fill="#24242c" font-size="26.0" font-weight="600" text-anchor="middle" opacity="0.5">Y</text>
<circle cx="722.4" cy="883.5" r="36.0" fill="#e9e9ef" stroke="#ffffff" stroke-width="1.5" opacity="0.3"/>
<text x="722.4" y="892.8" fill="#24242c" font-size="26.0" font-weight="600" text-anchor="middle" opacity="0.5">A</text>
<circle cx="633.1" cy="972.8" r="36.0" fill="#e9e9ef" stroke="#ffffff" stroke-width="1.5" opacity="0.3"/>
<text x="633.1" y="982.1" fill="#24242c" font-size="26.0" font-weight="600" text-anchor="middle" opacity="0.5">B</text>
<circle cx="36.0" cy="529.1" r="27.8" fill="#6e6e7a" stroke="#9a9aa6" stroke-width="1.5" opacity="0.9"/>
<text x="36.0" y="537.5" fill="#f2f2f6" font-size="23.4" font-weight="600" text-anchor="middle" opacity="1.0">FLK</text>
<text x="12" y="1184.0" fill="#8888a0" font-size="13">Anchor - iPad Pro 11 portrait - single</text>
</svg>
