<svg xmlns="http://www.w3.org/2000/svg" width="1032" height="1376" viewBox="0 0 1032.0 1376.0" font-family="-apple-system, Helvetica, sans-serif">
<rect width="100%" height="100%" fill="#101014"/>
<rect x="0.0" y="24.0" width="1032.0" height="1332.0" fill="none" stroke="#2a2a33" stroke-dasharray="6 6"/>
<rect x="0.0" y="24.0" width="1032.0" height="580.5" fill="#23324a"/>
<text x="516.0" y="314.2" fill="#4d6690" font-size="22" text-anchor="middle">GamePad</text>
<rect x="0.0" y="24.0" width="1032.0" height="580.5" rx="6.0" fill="none" stroke="#4d6690" stroke-width="1.5" opacity="0.12"/>
<circle cx="1016.2" cy="1010.7" r="1.7" fill="#55555f" stroke="#8a8a96" stroke-width="1.5" opacity="0.3"/>
<circle cx="996.3" cy="1012.1" r="1.7" fill="#55555f" stroke="#8a8a96" stroke-width="1.5" opacity="0.3"/>
<circle cx="976.6" cy="1014.5" r="1.7" fill="#55555f" stroke="#8a8a96" stroke-width="1.5" opacity="0.3"/>
<circle cx="957.0" cy="1018.0" r="1.7" fill="#55555f" stroke="#8a8a96" stroke-width="1.5" opacity="0.3"/>
<circle cx="937.7" cy="1022.5" r="1.7" fill="#55555f" stroke="#8a8a96" stroke-width="1.5" opacity="0.3"/>
<circle cx="918.6" cy="1028.0" r="1.7" fill="#55555f" stroke="#8a8a96" stroke-width="1.5" opacity="0.3"/>
<circle cx="899.8" cy="1034.5" r="1.7" fill="#55555f" stroke="#8a8a96" stroke-width="1.5" opacity="0.3"/>
<circle cx="881.4" cy="1042.0" r="1.7" fill="#55555f" stroke="#8a8a96" stroke-width="1.5" opacity="0.3"/>
<circle cx="863.5" cy="1050.5" r="1.7" fill="#55555f" stroke="#8a8a96" stroke-width="1.5" opacity="0.3"/>
<circle cx="846.0" cy="1059.9" r="1.7" fill="#55555f" stroke="#8a8a96" stroke-width="1.5" opacity="0.3"/>
<circle cx="829.0" cy="1070.2" r="1.7" fill="#55555f" stroke="#8a8a96" stroke-width="1.5" opacity="0.3"/>
<circle cx="812.6" cy="1081.4" r="1.7" fill="#55555f" stroke="#8a8a96" stroke-width="1.5" opacity="0.3"/>
<circle cx="796.8" cy="1093.5" r="1.7" fill="#55555f" stroke="#8a8a96" stroke-width="1.5" opacity="0.3"/>
<circle cx="781.7" cy="1106.4" r="1.7" fill="#55555f" stroke="#8a8a96" stroke-width="1.5" opacity="0.3"/>
<circle cx="767.3" cy="1120.1" r="1.7" fill="#55555f" stroke="#8a8a96" stroke-width="1.5" opacity="0.3"/>
<circle cx="753.6" cy="1134.5" r="1.7" fill="#55555f" stroke="#8a8a96" stroke-width="1.5" opacity="0.3"/>
<circle cx="740.7" cy="1149.6" r="1.7" fill="#55555f" stroke="#8a8a96" stroke-width="1.5" opacity="0.3"/>
<circle cx="728.6" cy="1165.4" r="1.7" fill="#55555f" stroke="#8a8a96" stroke-width="1.5" opacity="0.3"/>
<circle cx="717.4" cy="1181.8" r="1.7" fill="#55555f" stroke="#8a8a96" stroke-width="1.5" opacity="0.3"/>
<circle cx="707.1" cy="1198.8" r="1.7" fill="#55555f" stroke="#8a8a96" stroke-width="1.5" opacity="0.3"/>
<circle cx="697.7" cy="1216.3" r="1.7" fill="#55555f" stroke="#8a8a96" stroke-width="1.5" opacity="0.3"/>
<circle cx="689.2" cy="1234.2" r="1.7" fill="#55555f" stroke="#8a8a96" stroke-width="1.5" opacity="0.3"/>
<circle cx="681.7" cy="1252.6" r="1.7" fill="#55555f" stroke="#8a8a96" stroke-width="1.5" opacity="0.3"/>
<circle cx="675.2" cy="1271.4" r="1.7" fill="#55555f" stroke="#8a8a96" stroke-width="1.5" opacity="0.3"/>
<circle cx="669.7" cy="1290.5" r="1.7" fill="#55555f" stroke="#8a8a96" stroke-width="1.5" opacity="0.3"/>
<circle cx="665.2" cy="1309.8" r="1.7" fill="#55555f" stroke="#8a8a96" stroke-width="1.5" opacity="0.3"/>
<circle cx="661.7" cy="1329.4" r="1.7" fill="#55555f" stroke="#8a8a96" stroke-width="1.5" opacity="0.3"/>
<circle cx="659.3" cy="1349.1" r="1.7" fill="#55555f" stroke="#8a8a96" stroke-width="1.5" opacity="0.3"/>
<circle cx="15.8" cy="1010.7" r="1.7" fill="#55555f" stroke="#8a8a96" stroke-width="1.5" opacity="0.3"/>
<circle cx="35.7" cy="1012.1" r="1.7" fill="#55555f" stroke="#8a8a96" stroke-width="1.5" opacity="0.3"/>
<circle cx="55.4" cy="1014.5" r="1.7" fill="#55555f" stroke="#8a8a96" stroke-width="1.5" opacity="0.3"/>
<circle cx="75.0" cy="1018.0" r="1.7" fill="#55555f" stroke="#8a8a96" stroke-width="1.5" opacity="0.3"/>
<circle cx="94.3" cy="1022.5" r="1.7" fill="#55555f" stroke="#8a8a96" stroke-width="1.5" opacity="0.3"/>
<circle cx="113.4" cy="1028.0" r="1.7" fill="#55555f" stroke="#8a8a96" stroke-width="1.5" opacity="0.3"/>
<circle cx="132.2" cy="1034.5" r="1.7" fill="#55555f" stroke="#8a8a96" stroke-width="1.5" opacity="0.3"/>
<circle cx="150.6" cy="1042.0" r="1.7" fill="#55555f" stroke="#8a8a96" stroke-width="1.5" opacity="0.3"/>
<circle cx="168.5" cy="1050.5" r="1.7" fill="#55555f" stroke="#8a8a96" stroke-width="1.5" opacity="0.3"/>
<circle cx="186.0" cy="1059.9" r="1.7" fill="#55555f" stroke="#8a8a96" stroke-width="1.5" opacity="0.3"/>
<circle cx="203.0" cy="1070.2" r="1.7" fill="#55555f" stroke="#8a8a96" stroke-width="1.5" opacity="0.3"/>
<circle cx="219.4" cy="1081.4" r="1.7" fill="#55555f" stroke="#8a8a96" stroke-width="1.5" opacity="0.3"/>
<circle cx="235.2" cy="1093.5" r="1.7" fill="#55555f" stroke="#8a8a96" stroke-width="1.5" opacity="0.3"/>
<circle cx="250.3" cy="1106.4" r="1.7" fill="#55555f" stroke="#8a8a96" stroke-width="1.5" opacity="0.3"/>
<circle cx="264.7" cy="1120.1" r="1.7" fill="#55555f" stroke="#8a8a96" stroke-width="1.5" opacity="0.3"/>
<circle cx="278.4" cy="1134.5" r="1.7" fill="#55555f" stroke="#8a8a96" stroke-width="1.5" opacity="0.3"/>
<circle cx="291.3" cy="1149.6" r="1.7" fill="#55555f" stroke="#8a8a96" stroke-width="1.5" opacity="0.3"/>
<circle cx="303.4" cy="1165.4" r="1.7" fill="#55555f" stroke="#8a8a96" stroke-width="1.5" opacity="0.3"/>
<circle cx="314.6" cy="1181.8" r="1.7" fill="#55555f" stroke="#8a8a96" stroke-width="1.5" opacity="0.3"/>
<circle cx="324.9" cy="1198.8" r="1.7" fill="#55555f" stroke="#8a8a96" stroke-width="1.5" opacity="0.3"/>
<circle cx="334.3" cy="1216.3" r="1.7" fill="#55555f" stroke="#8a8a96" stroke-width="1.5" opacity="0.3"/>
<circle cx="342.8" cy="1234.2" r="1.7" fill="#55555f" stroke="#8a8a96" stroke-width="1.5" opacity="0.3"/>
<circle cx="350.3" cy="1252.6" r="1.7" fill="#55555f" stroke="#8a8a96" stroke-width="1.5" opacity="0.3"/>
<circle cx="356.8" cy="1271.4" r="1.7" fill="#55555f" stroke="#8a8a96" stroke-width="1.5" opacity="0.3"/>
<circle cx="362.3" cy="1290.5" r="1.7" fill="#55555f" stroke="#8a8a96" stroke-width="1.5" opacity="0.3"/>
<circle cx="366.8" cy="1309.8" r="1.7" fill="#55555f" stroke="#8a8a96" stroke-width="1.5" opacity="0.3"/>
<circle cx="370.3" cy="1329.4" r="1.7" fill="#55555f" stroke="#8a8a96" stroke-width="1.5" opacity="0.3"/>
<circle cx="372.7" cy="1349.1" r="1.7" fill="#55555f" stroke="#8a8a96" stroke-width="1.5" opacity="0.3"/>
<circle cx="881.4" cy="1042.0" r="33.1" fill="#e9e9ef" stroke="#ffffff" stroke-width="1.5" opacity="0.9"/>
<text x="881.4" y="1051.4" fill="#24242c" font-size="26.0" font-weight="600" text-anchor="middle" opacity="1.0">X</text>
<circle cx="802.0" cy="1089.4" r="33.1" fill="#e9e9ef" stroke="#ffffff" stroke-width="1.5" opacity="0.9"/>
<text x="802.0" y="1098.7" fill="#24242c" font-size="26.0" font-weight="600" text-anchor="middle" opacity="1.0">A</text>
<circle cx="736.6" cy="1154.8" r="33.1" fill="#e9e9ef" stroke="#ffffff" stroke-width="1.5" opacity="0.9"/>
<text x="736.6" y="1164.2" fill="#24242c" font-size="26.0" font-weight="600" text-anchor="middle" opacity="1.0">B</text>
<circle cx="689.2" cy="1234.2" r="33.1" fill="#e9e9ef" stroke="#ffffff" stroke-width="1.5" opacity="0.9"/>
<text x="689.2" y="1243.6" fill="#24242c" font-size="26.0" font-weight="600" text-anchor="middle" opacity="1.0">Y</text>
<circle cx="912.5" cy="1225.5" r="118.6" fill="#3a3a44" stroke="#6a6a76" stroke-width="1.5" opacity="0.9"/>
<circle cx="912.5" cy="1225.5" r="41.4" fill="#b8b8c4" stroke="#e0e0ea" stroke-width="1.5" opacity="0.9"/>
<text x="912.5" y="1234.9" fill="#24242c" font-size="26.0" font-weight="600" text-anchor="middle" opacity="1.0">R</text>
<rect x="896.3" y="821.9" width="99.4" height="59.6" rx="15.6" fill="#8d8d99" stroke="#b5b5c0" stroke-width="1.5" opacity="0.9"/>
<text x="946.0" y="860.7" fill="#111116" font-size="25.0" font-weight="600" text-anchor="middle" opacity="1.0">ZR</text>
<rect x="784.7" y="852.5" width="99.4" height="59.6" rx="15.6" fill="#8d8d99" stroke="#b5b5c0" stroke-width="1.5" opacity="0.9"/>
<text x="834.4" y="891.3" fill="#111116" font-size="25.0" font-weight="600" text-anchor="middle" opacity="1.0">R</text>
<circle cx="731.9" cy="935.9" r="25.6" fill="#6e6e7a" stroke="#9a9aa6" stroke-width="1.5" opacity="0.9"/>
<text x="731.9" y="943.6" fill="#f2f2f6" font-size="21.5" font-weight="600" text-anchor="middle" opacity="1.0">+</text>
<circle cx="150.6" cy="1042.0" r="33.1" fill="#c9c9d2" stroke="#ededf3" stroke-width="1.5" opacity="0.9"/>
<text x="150.6" y="1051.4" fill="#24242c" font-size="26.0" font-weight="600" text-anchor="middle" opacity="1.0">▲</text>
<circle cx="230.0" cy="1089.4" r="33.1" fill="#c9c9d2" stroke="#ededf3" stroke-width="1.5" opacity="0.9"/>
<text x="230.0" y="1098.7" fill="#24242c" font-size="26.0" font-weight="600" text-anchor="middle" opacity="1.0">▶</text>
<circle cx="295.4" cy="1154.8" r="33.1" fill="#c9c9d2" stroke="#ededf3" stroke-width="1.5" opacity="0.9"/>
<text x="295.4" y="1164.2" fill="#24242c" font-size="26.0" font-weight="600" text-anchor="middle" opacity="1.0">▼</text>
<circle cx="342.8" cy="1234.2" r="33.1" fill="#c9c9d2" stroke="#ededf3" stroke-width="1.5" opacity="0.9"/>
<text x="342.8" y="1243.6" fill="#24242c" font-size="26.0" font-weight="600" text-anchor="middle" opacity="1.0">◀</text>
<circle cx="119.5" cy="1225.5" r="118.6" fill="#3a3a44" stroke="#6a6a76" stroke-width="1.5" opacity="0.9"/>
<circle cx="119.5" cy="1225.5" r="41.4" fill="#b8b8c4" stroke="#e0e0ea" stroke-width="1.5" opacity="0.9"/>
<text x="119.5" y="1234.9" fill="#24242c" font-size="26.0" font-weight="600" text-anchor="middle" opacity="1.0">L</text>
<rect x="36.4" y="821.9" width="99.4" height="59.6" rx="15.6" fill="#8d8d99" stroke="#b5b5c0" stroke-width="1.5" opacity="0.9"/>
<text x="86.0" y="860.7" fill="#111116" font-size="25.0" font-weight="600" text-anchor="middle" opacity="1.0">ZL</text>
<rect x="147.9" y="852.5" width="99.4" height="59.6" rx="15.6" fill="#8d8d99" stroke="#b5b5c0" stroke-width="1.5" opacity="0.9"/>
<text x="197.6" y="891.3" fill="#111116" font-size="25.0" font-weight="600" text-anchor="middle" opacity="1.0">L</text>
<circle cx="300.1" cy="935.9" r="25.6" fill="#6e6e7a" stroke="#9a9aa6" stroke-width="1.5" opacity="0.9"/>
<text x="300.1" y="943.6" fill="#f2f2f6" font-size="21.5" font-weight="600" text-anchor="middle" opacity="1.0">−</text>
<circle cx="388.9" cy="1010.1" r="25.6" fill="#6e6e7a" stroke="#9a9aa6" stroke-width="1.5" opacity="0.9"/>
<text x="388.9" y="1017.9" fill="#f2f2f6" font-size="21.5" font-weight="600" text-anchor="middle" opacity="1.0">⌂</text>
<text x="12" y="1366.0" fill="#8888a0" font-size="13">Arc - iPad Pro 13 portrait - single</text>
</svg>
