<svg xmlns="http://www.w3.org/2000/svg" width="956" height="440" viewBox="0 0 956.0 440.0" font-family="-apple-system, Helvetica, sans-serif">
<rect width="100%" height="100%" fill="#101014"/>
<rect x="62.0" y="0.0" width="832.0" height="419.0" fill="none" stroke="#2a2a33" stroke-dasharray="6 6"/>
<rect x="105.6" y="0.0" width="744.9" height="419.0" fill="#23324a"/>
<text x="478.0" y="209.5" fill="#4d6690" font-size="22" text-anchor="middle">GamePad</text>
<rect x="105.6" y="0.0" width="744.9" height="419.0" rx="6.0" fill="none" stroke="#4d6690" stroke-width="1.5" opacity="0.12"/>
<circle cx="892.0" cy="239.3" r="1.7" fill="#55555f" stroke="#8a8a96" stroke-width="1.5" opacity="0.3"/>
<circle cx="882.9" cy="239.6" r="1.7" fill="#55555f" stroke="#8a8a96" stroke-width="1.5" opacity="0.3"/>
<circle cx="873.8" cy="240.3" r="1.7" fill="#55555f" stroke="#8a8a96" stroke-width="1.5" opacity="0.3"/>
<circle cx="864.8" cy="241.4" r="1.7" fill="#55555f" stroke="#8a8a96" stroke-width="1.5" opacity="0.3"/>
<circle cx="855.8" cy="242.9" r="1.7" fill="#55555f" stroke="#8a8a96" stroke-width="1.5" opacity="0.3"/>
<circle cx="846.9" cy="244.9" r="1.7" fill="#55555f" stroke="#8a8a96" stroke-width="1.5" opacity="0.3"/>
<circle cx="838.1" cy="247.2" r="1.7" fill="#55555f" stroke="#8a8a96" stroke-width="1.5" opacity="0.3"/>
<circle cx="829.4" cy="250.0" r="1.7" fill="#55555f" stroke="#8a8a96" stroke-width="1.5" opacity="0.3"/>
<circle cx="820.9" cy="253.1" r="1.7" fill="#55555f" stroke="#8a8a96" stroke-width="1.5" opacity="0.3"/>
<circle cx="812.5" cy="256.6" r="1.7" fill="#55555f" stroke="#8a8a96" stroke-width="1.5" opacity="0.3"/>
<circle cx="804.3" cy="260.5" r="1.7" fill="#55555f" stroke="#8a8a96" stroke-width="1.5" opacity="0.3"/>
<circle cx="796.2" cy="264.8" r="1.7" fill="#55555f" stroke="#8a8a96" stroke-width="1.5" opacity="0.3"/>
<circle cx="788.4" cy="269.4" r="1.7" fill="#55555f" stroke="#8a8a96" stroke-width="1.5" opacity="0.3"/>
<circle cx="780.8" cy="274.4" r="1.7" fill="#55555f" stroke="#8a8a96" stroke-width="1.5" opacity="0.3"/>
<circle cx="773.4" cy="279.8" r="1.7" fill="#55555f" stroke="#8a8a96" stroke-width="1.5" opacity="0.3"/>
<circle cx="766.2" cy="285.4" r="1.7" fill="#55555f" stroke="#8a8a96" stroke-width="1.5" opacity="0.3"/>
<circle cx="759.4" cy="291.4" r="1.7" fill="#55555f" stroke="#8a8a96" stroke-width="1.5" opacity="0.3"/>
<circle cx="752.8" cy="297.7" r="1.7" fill="#55555f" stroke="#8a8a96" stroke-width="1.5" opacity="0.3"/>
<circle cx="746.5" cy="304.3" r="1.7" fill="#55555f" stroke="#8a8a96" stroke-width="1.5" opacity="0.3"/>
<circle cx="740.5" cy="311.1" r="1.7" fill="#55555f" stroke="#8a8a96" stroke-width="1.5" opacity="0.3"/>
<circle cx="734.8" cy="318.2" r="1.7" fill="#55555f" stroke="#8a8a96" stroke-width="1.5" opacity="0.3"/>
<circle cx="729.5" cy="325.6" r="1.7" fill="#55555f" stroke="#8a8a96" stroke-width="1.5" opacity="0.3"/>
<circle cx="724.5" cy="333.2" r="1.7" fill="#55555f" stroke="#8a8a96" stroke-width="1.5" opacity="0.3"/>
<circle cx="719.8" cy="341.0" r="1.7" fill="#55555f" stroke="#8a8a96" stroke-width="1.5" opacity="0.3"/>
<circle cx="64.0" cy="239.3" r="1.7" fill="#55555f" stroke="#8a8a96" stroke-width="1.5" opacity="0.3"/>
<circle cx="73.1" cy="239.6" r="1.7" fill="#55555f" stroke="#8a8a96" stroke-width="1.5" opacity="0.3"/>
<circle cx="82.2" cy="240.3" r="1.7" fill="#55555f" stroke="#8a8a96" stroke-width="1.5" opacity="0.3"/>
<circle cx="91.2" cy="241.4" r="1.7" fill="#55555f" stroke="#8a8a96" stroke-width="1.5" opacity="0.3"/>
<circle cx="100.2" cy="242.9" r="1.7" fill="#55555f" stroke="#8a8a96" stroke-width="1.5" opacity="0.3"/>
<circle cx="109.1" cy="244.9" r="1.7" fill="#55555f" stroke="#8a8a96" stroke-width="1.5" opacity="0.3"/>
<circle cx="117.9" cy="247.2" r="1.7" fill="#55555f" stroke="#8a8a96" stroke-width="1.5" opacity="0.3"/>
<circle cx="126.6" cy="250.0" r="1.7" fill="#55555f" stroke="#8a8a96" stroke-width="1.5" opacity="0.3"/>
<circle cx="135.1" cy="253.1" r="1.7" fill="#55555f" stroke="#8a8a96" stroke-width="1.5" opacity="0.3"/>
<circle cx="143.5" cy="256.6" r="1.7" fill="#55555f" stroke="#8a8a96" stroke-width="1.5" opacity="0.3"/>
<circle cx="151.7" cy="260.5" r="1.7" fill="#55555f" stroke="#8a8a96" stroke-width="1.5" opacity="0.3"/>
<circle cx="159.8" cy="264.8" r="1.7" fill="#55555f" stroke="#8a8a96" stroke-width="1.5" opacity="0.3"/>
<circle cx="167.6" cy="269.4" r="1.7" fill="#55555f" stroke="#8a8a96" stroke-width="1.5" opacity="0.3"/>
<circle cx="175.2" cy="274.4" r="1.7" fill="#55555f" stroke="#8a8a96" stroke-width="1.5" opacity="0.3"/>
<circle cx="182.6" cy="279.8" r="1.7" fill="#55555f" stroke="#8a8a96" stroke-width="1.5" opacity="0.3"/>
<circle cx="189.8" cy="285.4" r="1.7" fill="#55555f" stroke="#8a8a96" stroke-width="1.5" opacity="0.3"/>
<circle cx="196.6" cy="291.4" r="1.7" fill="#55555f" stroke="#8a8a96" stroke-width="1.5" opacity="0.3"/>
<circle cx="203.2" cy="297.7" r="1.7" fill="#55555f" stroke="#8a8a96" stroke-width="1.5" opacity="0.3"/>
<circle cx="209.5" cy="304.3" r="1.7" fill="#55555f" stroke="#8a8a96" stroke-width="1.5" opacity="0.3"/>
<circle cx="215.5" cy="311.1" r="1.7" fill="#55555f" stroke="#8a8a96" stroke-width="1.5" opacity="0.3"/>
<circle cx="221.2" cy="318.2" r="1.7" fill="#55555f" stroke="#8a8a96" stroke-width="1.5" opacity="0.3"/>
<circle cx="226.5" cy="325.6" r="1.7" fill="#55555f" stroke="#8a8a96" stroke-width="1.5" opacity="0.3"/>
<circle cx="231.5" cy="333.2" r="1.7" fill="#55555f" stroke="#8a8a96" stroke-width="1.5" opacity="0.3"/>
<circle cx="236.2" cy="341.0" r="1.7" fill="#55555f" stroke="#8a8a96" stroke-width="1.5" opacity="0.3"/>
<circle cx="864.8" cy="241.4" r="15.2" fill="#e9e9ef" stroke="#ffffff" stroke-width="1.5" opacity="0.9"/>
<text x="864.8" y="246.0" fill="#24242c" font-size="12.8" font-weight="600" text-anchor="middle" opacity="1.0">A</text>
<circle cx="823.7" cy="252.0" r="15.2" fill="#e9e9ef" stroke="#ffffff" stroke-width="1.5" opacity="0.9"/>
<text x="823.7" y="256.6" fill="#24242c" font-size="12.8" font-weight="600" text-anchor="middle" opacity="1.0">B</text>
<circle cx="785.8" cy="271.1" r="15.2" fill="#e9e9ef" stroke="#ffffff" stroke-width="1.5" opacity="0.9"/>
<text x="785.8" y="275.7" fill="#24242c" font-size="12.8" font-weight="600" text-anchor="middle" opacity="1.0">X</text>
<circle cx="752.8" cy="297.7" r="15.2" fill="#e9e9ef" stroke="#ffffff" stroke-width="1.5" opacity="0.9"/>
<text x="752.8" y="302.3" fill="#24242c" font-size="12.8" font-weight="600" text-anchor="middle" opacity="1.0">Y</text>
<circle cx="837.4" cy="344.6" r="64.5" fill="#3a3a44" stroke="#6a6a76" stroke-width="1.5" opacity="0.9"/>
<circle cx="837.4" cy="344.6" r="29.1" fill="#b8b8c4" stroke="#e0e0ea" stroke-width="1.5" opacity="0.9"/>
<text x="837.4" y="353.4" fill="#24242c" font-size="24.4" font-weight="600" text-anchor="middle" opacity="1.0">R</text>
<rect x="827.3" y="153.2" width="45.5" height="27.3" rx="7.1" fill="#8d8d99" stroke="#b5b5c0" stroke-width="1.5" opacity="0.9"/>
<text x="850.0" y="171.0" fill="#111116" font-size="11.5" font-weight="600" text-anchor="middle" opacity="1.0">ZR</text>
<rect x="776.0" y="166.7" width="45.5" height="27.3" rx="7.1" fill="#8d8d99" stroke="#b5b5c0" stroke-width="1.5" opacity="0.9"/>
<text x="798.7" y="184.5" fill="#111116" font-size="11.5" font-weight="600" text-anchor="middle" opacity="1.0">R</text>
<circle cx="750.9" cy="203.4" r="11.7" fill="#6e6e7a" stroke="#9a9aa6" stroke-width="1.5" opacity="0.9"/>
<text x="750.9" y="207.0" fill="#f2f2f6" font-size="10.0" font-weight="600" text-anchor="middle" opacity="1.0">+</text>
<circle cx="91.2" cy="241.4" r="15.2" fill="#c9c9d2" stroke="#ededf3" stroke-width="1.5" opacity="0.9"/>
<text x="91.2" y="246.0" fill="#24242c" font-size="12.8" font-weight="600" text-anchor="middle" opacity="1.0">▲</text>
<circle cx="132.3" cy="252.0" r="15.2" fill="#c9c9d2" stroke="#ededf3" stroke-width="1.5" opacity="0.9"/>
<text x="132.3" y="256.6" fill="#24242c" font-size="12.8" font-weight="600" text-anchor="middle" opacity="1.0">▶</text>
<circle cx="170.2" cy="271.1" r="15.2" fill="#c9c9d2" stroke="#ededf3" stroke-width="1.5" opacity="0.9"/>
<text x="170.2" y="275.7" fill="#24242c" font-size="12.8" font-weight="600" text-anchor="middle" opacity="1.0">▼</text>
<circle cx="203.2" cy="297.7" r="15.2" fill="#c9c9d2" stroke="#ededf3" stroke-width="1.5" opacity="0.9"/>
<text x="203.2" y="302.3" fill="#24242c" font-size="12.8" font-weight="600" text-anchor="middle" opacity="1.0">◀</text>
<circle cx="118.6" cy="344.6" r="64.5" fill="#3a3a44" stroke="#6a6a76" stroke-width="1.5" opacity="0.9"/>
<circle cx="118.6" cy="344.6" r="29.1" fill="#b8b8c4" stroke="#e0e0ea" stroke-width="1.5" opacity="0.9"/>
<text x="118.6" y="353.4" fill="#24242c" font-size="24.4" font-weight="600" text-anchor="middle" opacity="1.0">L</text>
<rect x="83.2" y="153.2" width="45.5" height="27.3" rx="7.1" fill="#8d8d99" stroke="#b5b5c0" stroke-width="1.5" opacity="0.9"/>
<text x="106.0" y="171.0" fill="#111116" font-size="11.5" font-weight="600" text-anchor="middle" opacity="1.0">ZL</text>
<rect x="134.5" y="166.7" width="45.5" height="27.3" rx="7.1" fill="#8d8d99" stroke="#b5b5c0" stroke-width="1.5" opacity="0.9"/>
<text x="157.3" y="184.5" fill="#111116" font-size="11.5" font-weight="600" text-anchor="middle" opacity="1.0">L</text>
<circle cx="205.1" cy="203.4" r="11.7" fill="#6e6e7a" stroke="#9a9aa6" stroke-width="1.5" opacity="0.9"/>
<text x="205.1" y="207.0" fill="#f2f2f6" font-size="10.0" font-weight="600" text-anchor="middle" opacity="1.0">−</text>
<circle cx="247.6" cy="235.1" r="11.7" fill="#6e6e7a" stroke="#9a9aa6" stroke-width="1.5" opacity="0.9"/>
<text x="247.6" y="238.7" fill="#f2f2f6" font-size="10.0" font-weight="600" text-anchor="middle" opacity="1.0">⌂</text>
<text x="12" y="430.0" fill="#8888a0" font-size="13">Arc - iPhone 16 Pro Max - single</text>
</svg>
