<svg xmlns="http://www.w3.org/2000/svg" width="1376" height="1032" viewBox="0 0 1376.0 1032.0" font-family="-apple-system, Helvetica, sans-serif">
<rect width="100%" height="100%" fill="#101014"/>
<rect x="0.0" y="24.0" width="1376.0" height="988.0" fill="none" stroke="#2a2a33" stroke-dasharray="6 6"/>
<rect x="248.9" y="24.0" width="878.2" height="494.0" fill="#23324a"/>
<text x="688.0" y="271.0" fill="#4d6690" font-size="22" text-anchor="middle">TV</text>
<rect x="248.9" y="518.0" width="878.2" height="494.0" fill="#23324a"/>
<text x="688.0" y="765.0" fill="#4d6690" font-size="22" text-anchor="middle">GamePad</text>
<rect x="248.9" y="518.0" width="878.2" height="494.0" rx="6.0" fill="none" stroke="#4d6690" stroke-width="1.5" opacity="0.12"/>
<circle cx="1369.7" cy="711.4" r="1.7" fill="#55555f" stroke="#8a8a96" stroke-width="1.5" opacity="0.3"/>
<circle cx="1354.3" cy="712.0" r="1.7" fill="#55555f" stroke="#8a8a96" stroke-width="1.5" opacity="0.3"/>
<circle cx="1338.9" cy="713.4" r="1.7" fill="#55555f" stroke="#8a8a96" stroke-width="1.5" opacity="0.3"/>
<circle cx="1323.5" cy="715.5" r="1.7" fill="#55555f" stroke="#8a8a96" stroke-width="1.5" opacity="0.3"/>
<circle cx="1308.3" cy="718.4" r="1.7" fill="#55555f" stroke="#8a8a96" stroke-width="1.5" opacity="0.3"/>
<circle cx="1293.2" cy="721.9" r="1.7" fill="#55555f" stroke="#8a8a96" stroke-width="1.5" opacity="0.3"/>
<circle cx="1278.4" cy="726.1" r="1.7" fill="#55555f" stroke="#8a8a96" stroke-width="1.5" opacity="0.3"/>
<circle cx="1263.7" cy="731.1" r="1.7" fill="#55555f" stroke="#8a8a96" stroke-width="1.5" opacity="0.3"/>
<circle cx="1249.3" cy="736.7" r="1.7" fill="#55555f" stroke="#8a8a96" stroke-width="1.5" opacity="0.3"/>
<circle cx="1235.1" cy="743.0" r="1.7" fill="#55555f" stroke="#8a8a96" stroke-width="1.5" opacity="0.3"/>
<circle cx="1221.3" cy="749.9" r="1.7" fill="#55555f" stroke="#8a8a96" stroke-width="1.5" opacity="0.3"/>
<circle cx="1207.8" cy="757.5" r="1.7" fill="#55555f" stroke="#8a8a96" stroke-width="1.5" opacity="0.3"/>
<circle cx="1194.7" cy="765.7" r="1.7" fill="#55555f" stroke="#8a8a96" stroke-width="1.5" opacity="0.3"/>
<circle cx="1182.0" cy="774.5" r="1.7" fill="#55555f" stroke="#8a8a96" stroke-width="1.5" opacity="0.3"/>
<circle cx="1169.7" cy="783.9" r="1.7" fill="#55555f" stroke="#8a8a96" stroke-width="1.5" opacity="0.3"/>
<circle cx="1157.9" cy="793.9" r="1.7" fill="#55555f" stroke="#8a8a96" stroke-width="1.5" opacity="0.3"/>
<circle cx="1146.5" cy="804.4" r="1.7" fill="#55555f" stroke="#8a8a96" stroke-width="1.5" opacity="0.3"/>
<circle cx="1135.7" cy="815.4" r="1.7" fill="#55555f" stroke="#8a8a96" stroke-width="1.5" opacity="0.3"/>
<circle cx="6.3" cy="711.4" r="1.7" fill="#55555f" stroke="#8a8a96" stroke-width="1.5" opacity="0.3"/>
<circle cx="21.7" cy="712.0" r="1.7" fill="#55555f" stroke="#8a8a96" stroke-width="1.5" opacity="0.3"/>
<circle cx="37.1" cy="713.4" r="1.7" fill="#55555f" stroke="#8a8a96" stroke-width="1.5" opacity="0.3"/>
<circle cx="52.5" cy="715.5" r="1.7" fill="#55555f" stroke="#8a8a96" stroke-width="1.5" opacity="0.3"/>
<circle cx="67.7" cy="718.4" r="1.7" fill="#55555f" stroke="#8a8a96" stroke-width="1.5" opacity="0.3"/>
<circle cx="82.8" cy="721.9" r="1.7" fill="#55555f" stroke="#8a8a96" stroke-width="1.5" opacity="0.3"/>
<circle cx="97.6" cy="726.1" r="1.7" fill="#55555f" stroke="#8a8a96" stroke-width="1.5" opacity="0.3"/>
<circle cx="112.3" cy="731.1" r="1.7" fill="#55555f" stroke="#8a8a96" stroke-width="1.5" opacity="0.3"/>
<circle cx="126.7" cy="736.7" r="1.7" fill="#55555f" stroke="#8a8a96" stroke-width="1.5" opacity="0.3"/>
<circle cx="140.9" cy="743.0" r="1.7" fill="#55555f" stroke="#8a8a96" stroke-width="1.5" opacity="0.3"/>
<circle cx="154.7" cy="749.9" r="1.7" fill="#55555f" stroke="#8a8a96" stroke-width="1.5" opacity="0.3"/>
<circle cx="168.2" cy="757.5" r="1.7" fill="#55555f" stroke="#8a8a96" stroke-width="1.5" opacity="0.3"/>
<circle cx="181.3" cy="765.7" r="1.7" fill="#55555f" stroke="#8a8a96" stroke-width="1.5" opacity="0.3"/>
<circle cx="194.0" cy="774.5" r="1.7" fill="#55555f" stroke="#8a8a96" stroke-width="1.5" opacity="0.3"/>
<circle cx="206.3" cy="783.9" r="1.7" fill="#55555f" stroke="#8a8a96" stroke-width="1.5" opacity="0.3"/>
<circle cx="218.1" cy="793.9" r="1.7" fill="#55555f" stroke="#8a8a96" stroke-width="1.5" opacity="0.3"/>
<circle cx="229.5" cy="804.4" r="1.7" fill="#55555f" stroke="#8a8a96" stroke-width="1.5" opacity="0.3"/>
<circle cx="240.3" cy="815.4" r="1.7" fill="#55555f" stroke="#8a8a96" stroke-width="1.5" opacity="0.3"/>
<circle cx="1348.1" cy="712.5" r="25.8" fill="#e9e9ef" stroke="#ffffff" stroke-width="1.5" opacity="0.9"/>
<text x="1348.1" y="720.3" fill="#24242c" font-size="21.7" font-weight="600" text-anchor="middle" opacity="1.0">X</text>
<circle cx="1283.3" cy="724.6" r="25.8" fill="#e9e9ef" stroke="#ffffff" stroke-width="1.5" opacity="0.9"/>
<text x="1283.3" y="732.4" fill="#24242c" font-size="21.7" font-weight="600" text-anchor="middle" opacity="1.0">A</text>
<circle cx="1222.2" cy="749.4" r="25.8" fill="#e9e9ef" stroke="#ffffff" stroke-width="1.5" opacity="0.9"/>
<text x="1222.2" y="757.2" fill="#24242c" font-size="21.7" font-weight="600" text-anchor="middle" opacity="1.0">B</text>
<circle cx="1167.3" cy="785.9" r="25.8" fill="#e9e9ef" stroke="#ffffff" stroke-width="1.5" opacity="0.9"/>
<text x="1167.3" y="793.7" fill="#24242c" font-size="21.7" font-weight="600" text-anchor="middle" opacity="1.0">Y</text>
<circle cx="1281.3" cy="883.7" r="101.5" fill="#3a3a44" stroke="#6a6a76" stroke-width="1.5" opacity="0.9"/>
<circle cx="1281.3" cy="883.7" r="41.4" fill="#b8b8c4" stroke="#e0e0ea" stroke-width="1.5" opacity="0.9"/>
<text x="1281.3" y="893.0" fill="#24242c" font-size="26.0" font-weight="600" text-anchor="middle" opacity="1.0">R</text>
<rect x="1264.3" y="565.0" width="77.4" height="46.4" rx="12.1" fill="#8d8d99" stroke="#b5b5c0" stroke-width="1.5" opacity="0.9"/>
<text x="1303.0" y="595.3" fill="#111116" font-size="19.5" font-weight="600" text-anchor="middle" opacity="1.0">ZR</text>
<rect x="1177.2" y="588.1" width="77.4" height="46.4" rx="12.1" fill="#8d8d99" stroke="#b5b5c0" stroke-width="1.5" opacity="0.9"/>
<text x="1215.8" y="618.3" fill="#111116" font-size="19.5" font-weight="600" text-anchor="middle" opacity="1.0">R</text>
<circle cx="1150.4" cy="650.9" r="19.9" fill="#6e6e7a" stroke="#9a9aa6" stroke-width="1.5" opacity="0.9"/>
<text x="1150.4" y="656.9" fill="#f2f2f6" font-size="16.7" font-weight="600" text-anchor="middle" opacity="1.0">+</text>
<circle cx="27.9" cy="712.5" r="25.8" fill="#c9c9d2" stroke="#ededf3" stroke-width="1.5" opacity="0.9"/>
<text x="27.9" y="720.3" fill="#24242c" font-size="21.7" font-weight="600" text-anchor="middle" opacity="1.0">▲</text>
<circle cx="92.7" cy="724.6" r="25.8" fill="#c9c9d2" stroke="#ededf3" stroke-width="1.5" opacity="0.9"/>
<text x="92.7" y="732.4" fill="#24242c" font-size="21.7" font-weight="600" text-anchor="middle" opacity="1.0">▶</text>
<circle cx="153.8" cy="749.4" r="25.8" fill="#c9c9d2" stroke="#ededf3" stroke-width="1.5" opacity="0.9"/>
<text x="153.8" y="757.2" fill="#24242c" font-size="21.7" font-weight="600" text-anchor="middle" opacity="1.0">▼</text>
<circle cx="208.7" cy="785.9" r="25.8" fill="#c9c9d2" stroke="#ededf3" stroke-width="1.5" opacity="0.9"/>
<text x="208.7" y="793.7" fill="#24242c" font-size="21.7" font-weight="600" text-anchor="middle" opacity="1.0">◀</text>
<circle cx="94.7" cy="883.7" r="101.5" fill="#3a3a44" stroke="#6a6a76" stroke-width="1.5" opacity="0.9"/>
<circle cx="94.7" cy="883.7" r="41.4" fill="#b8b8c4" stroke="#e0e0ea" stroke-width="1.5" opacity="0.9"/>
<text x="94.7" y="893.0" fill="#24242c" font-size="26.0" font-weight="600" text-anchor="middle" opacity="1.0">L</text>
<rect x="34.3" y="565.0" width="77.4" height="46.4" rx="12.1" fill="#8d8d99" stroke="#b5b5c0" stroke-width="1.5" opacity="0.9"/>
<text x="73.0" y="595.3" fill="#111116" font-size="19.5" font-weight="600" text-anchor="middle" opacity="1.0">ZL</text>
<rect x="121.5" y="588.1" width="77.4" height="46.4" rx="12.1" fill="#8d8d99" stroke="#b5b5c0" stroke-width="1.5" opacity="0.9"/>
<text x="160.2" y="618.3" fill="#111116" font-size="19.5" font-weight="600" text-anchor="middle" opacity="1.0">L</text>
<circle cx="225.6" cy="650.9" r="19.9" fill="#6e6e7a" stroke="#9a9aa6" stroke-width="1.5" opacity="0.9"/>
<text x="225.6" y="656.9" fill="#f2f2f6" font-size="16.7" font-weight="600" text-anchor="middle" opacity="1.0">−</text>
<circle cx="219.9" cy="581.8" r="19.9" fill="#6e6e7a" stroke="#9a9aa6" stroke-width="1.5" opacity="0.9"/>
<text x="219.9" y="587.8" fill="#f2f2f6" font-size="16.7" font-weight="600" text-anchor="middle" opacity="1.0">⌂</text>
<text x="12" y="1022.0" fill="#8888a0" font-size="13">Arc - iPad Pro 13 - stacked</text>
</svg>
