<svg xmlns="http://www.w3.org/2000/svg" width="1133" height="744" viewBox="0 0 1133.0 744.0" font-family="-apple-system, Helvetica, sans-serif">
<rect width="100%" height="100%" fill="#101014"/>
<rect x="0.0" y="24.0" width="1133.0" height="700.0" fill="none" stroke="#2a2a33" stroke-dasharray="6 6"/>
<rect x="255.4" y="24.0" width="622.2" height="350.0" fill="#23324a"/>
<text x="566.5" y="199.0" fill="#4d6690" font-size="22" text-anchor="middle">TV</text>
<rect x="255.4" y="374.0" width="622.2" height="350.0" fill="#23324a"/>
<text x="566.5" y="549.0" fill="#4d6690" font-size="22" text-anchor="middle">GamePad</text>
<rect x="255.4" y="374.0" width="622.2" height="350.0" rx="6.0" fill="none" stroke="#4d6690" stroke-width="1.5" opacity="0.12"/>
<circle cx="1124.9" cy="378.5" r="1.7" fill="#55555f" stroke="#8a8a96" stroke-width="1.5" opacity="0.3"/>
<circle cx="1109.4" cy="379.1" r="1.7" fill="#55555f" stroke="#8a8a96" stroke-width="1.5" opacity="0.3"/>
<circle cx="1094.0" cy="380.4" r="1.7" fill="#55555f" stroke="#8a8a96" stroke-width="1.5" opacity="0.3"/>
<circle cx="1078.6" cy="382.4" r="1.7" fill="#55555f" stroke="#8a8a96" stroke-width="1.5" opacity="0.3"/>
<circle cx="1063.4" cy="384.9" r="1.7" fill="#55555f" stroke="#8a8a96" stroke-width="1.5" opacity="0.3"/>
<circle cx="1048.2" cy="388.1" r="1.7" fill="#55555f" stroke="#8a8a96" stroke-width="1.5" opacity="0.3"/>
<circle cx="1033.3" cy="391.9" r="1.7" fill="#55555f" stroke="#8a8a96" stroke-width="1.5" opacity="0.3"/>
<circle cx="1018.4" cy="396.4" r="1.7" fill="#55555f" stroke="#8a8a96" stroke-width="1.5" opacity="0.3"/>
<circle cx="1003.8" cy="401.4" r="1.7" fill="#55555f" stroke="#8a8a96" stroke-width="1.5" opacity="0.3"/>
<circle cx="989.4" cy="407.0" r="1.7" fill="#55555f" stroke="#8a8a96" stroke-width="1.5" opacity="0.3"/>
<circle cx="975.2" cy="413.3" r="1.7" fill="#55555f" stroke="#8a8a96" stroke-width="1.5" opacity="0.3"/>
<circle cx="961.3" cy="420.1" r="1.7" fill="#55555f" stroke="#8a8a96" stroke-width="1.5" opacity="0.3"/>
<circle cx="947.7" cy="427.5" r="1.7" fill="#55555f" stroke="#8a8a96" stroke-width="1.5" opacity="0.3"/>
<circle cx="934.4" cy="435.4" r="1.7" fill="#55555f" stroke="#8a8a96" stroke-width="1.5" opacity="0.3"/>
<circle cx="921.5" cy="443.9" r="1.7" fill="#55555f" stroke="#8a8a96" stroke-width="1.5" opacity="0.3"/>
<circle cx="908.9" cy="452.9" r="1.7" fill="#55555f" stroke="#8a8a96" stroke-width="1.5" opacity="0.3"/>
<circle cx="896.7" cy="462.4" r="1.7" fill="#55555f" stroke="#8a8a96" stroke-width="1.5" opacity="0.3"/>
<circle cx="884.9" cy="472.4" r="1.7" fill="#55555f" stroke="#8a8a96" stroke-width="1.5" opacity="0.3"/>
<circle cx="8.1" cy="378.5" r="1.7" fill="#55555f" stroke="#8a8a96" stroke-width="1.5" opacity="0.3"/>
<circle cx="23.6" cy="379.1" r="1.7" fill="#55555f" stroke="#8a8a96" stroke-width="1.5" opacity="0.3"/>
<circle cx="39.0" cy="380.4" r="1.7" fill="#55555f" stroke="#8a8a96" stroke-width="1.5" opacity="0.3"/>
<circle cx="54.4" cy="382.4" r="1.7" fill="#55555f" stroke="#8a8a96" stroke-width="1.5" opacity="0.3"/>
<circle cx="69.6" cy="384.9" r="1.7" fill="#55555f" stroke="#8a8a96" stroke-width="1.5" opacity="0.3"/>
<circle cx="84.8" cy="388.1" r="1.7" fill="#55555f" stroke="#8a8a96" stroke-width="1.5" opacity="0.3"/>
<circle cx="99.7" cy="391.9" r="1.7" fill="#55555f" stroke="#8a8a96" stroke-width="1.5" opacity="0.3"/>
<circle cx="114.6" cy="396.4" r="1.7" fill="#55555f" stroke="#8a8a96" stroke-width="1.5" opacity="0.3"/>
<circle cx="129.2" cy="401.4" r="1.7" fill="#55555f" stroke="#8a8a96" stroke-width="1.5" opacity="0.3"/>
<circle cx="143.6" cy="407.0" r="1.7" fill="#55555f" stroke="#8a8a96" stroke-width="1.5" opacity="0.3"/>
<circle cx="157.8" cy="413.3" r="1.7" fill="#55555f" stroke="#8a8a96" stroke-width="1.5" opacity="0.3"/>
<circle cx="171.7" cy="420.1" r="1.7" fill="#55555f" stroke="#8a8a96" stroke-width="1.5" opacity="0.3"/>
<circle cx="185.3" cy="427.5" r="1.7" fill="#55555f" stroke="#8a8a96" stroke-width="1.5" opacity="0.3"/>
<circle cx="198.6" cy="435.4" r="1.7" fill="#55555f" stroke="#8a8a96" stroke-width="1.5" opacity="0.3"/>
<circle cx="211.5" cy="443.9" r="1.7" fill="#55555f" stroke="#8a8a96" stroke-width="1.5" opacity="0.3"/>
<circle cx="224.1" cy="452.9" r="1.7" fill="#55555f" stroke="#8a8a96" stroke-width="1.5" opacity="0.3"/>
<circle cx="236.3" cy="462.4" r="1.7" fill="#55555f" stroke="#8a8a96" stroke-width="1.5" opacity="0.3"/>
<circle cx="248.1" cy="472.4" r="1.7" fill="#55555f" stroke="#8a8a96" stroke-width="1.5" opacity="0.3"/>
<circle cx="1087.9" cy="381.1" r="25.8" fill="#e9e9ef" stroke="#ffffff" stroke-width="1.5" opacity="0.9"/>
<text x="1087.9" y="388.9" fill="#24242c" font-size="21.7" font-weight="600" text-anchor="middle" opacity="1.0">X</text>
<circle cx="1023.3" cy="394.8" r="25.8" fill="#e9e9ef" stroke="#ffffff" stroke-width="1.5" opacity="0.9"/>
<text x="1023.3" y="402.6" fill="#24242c" font-size="21.7" font-weight="600" text-anchor="middle" opacity="1.0">A</text>
<circle cx="962.2" cy="419.6" r="25.8" fill="#e9e9ef" stroke="#ffffff" stroke-width="1.5" opacity="0.9"/>
<text x="962.2" y="427.4" fill="#24242c" font-size="21.7" font-weight="600" text-anchor="middle" opacity="1.0">B</text>
<circle cx="906.4" cy="454.7" r="25.8" fill="#e9e9ef" stroke="#ffffff" stroke-width="1.5" opacity="0.9"/>
<text x="906.4" y="462.5" fill="#24242c" font-size="21.7" font-weight="600" text-anchor="middle" opacity="1.0">Y</text>
<circle cx="1036.9" cy="554.0" r="101.5" fill="#3a3a44" stroke="#6a6a76" stroke-width="1.5" opacity="0.9"/>
<circle cx="1036.9" cy="554.0" r="41.4" fill="#b8b8c4" stroke="#e0e0ea" stroke-width="1.5" opacity="0.9"/>
<text x="1036.9" y="563.4" fill="#24242c" font-size="26.0" font-weight="600" text-anchor="middle" opacity="1.0">R</text>
<rect x="1014.1" y="232.7" width="77.4" height="46.4" rx="12.1" fill="#8d8d99" stroke="#b5b5c0" stroke-width="1.5" opacity="0.9"/>
<text x="1052.8" y="262.9" fill="#111116" font-size="19.5" font-weight="600" text-anchor="middle" opacity="1.0">ZR</text>
<rect x="926.8" y="254.9" width="77.4" height="46.4" rx="12.1" fill="#8d8d99" stroke="#b5b5c0" stroke-width="1.5" opacity="0.9"/>
<text x="965.5" y="285.2" fill="#111116" font-size="19.5" font-weight="600" text-anchor="middle" opacity="1.0">R</text>
<circle cx="914.4" cy="238.3" r="19.9" fill="#6e6e7a" stroke="#9a9aa6" stroke-width="1.5" opacity="0.9"/>
<text x="914.4" y="244.3" fill="#f2f2f6" font-size="16.7" font-weight="600" text-anchor="middle" opacity="1.0">+</text>
<circle cx="45.1" cy="381.1" r="25.8" fill="#c9c9d2" stroke="#ededf3" stroke-width="1.5" opacity="0.9"/>
<text x="45.1" y="388.9" fill="#24242c" font-size="21.7" font-weight="600" text-anchor="middle" opacity="1.0">▲</text>
<circle cx="109.7" cy="394.8" r="25.8" fill="#c9c9d2" stroke="#ededf3" stroke-width="1.5" opacity="0.9"/>
<text x="109.7" y="402.6" fill="#24242c" font-size="21.7" font-weight="600" text-anchor="middle" opacity="1.0">▶</text>
<circle cx="170.8" cy="419.6" r="25.8" fill="#c9c9d2" stroke="#ededf3" stroke-width="1.5" opacity="0.9"/>
<text x="170.8" y="427.4" fill="#24242c" font-size="21.7" font-weight="600" text-anchor="middle" opacity="1.0">▼</text>
<circle cx="226.6" cy="454.7" r="25.8" fill="#c9c9d2" stroke="#ededf3" stroke-width="1.5" opacity="0.9"/>
<text x="226.6" y="462.5" fill="#24242c" font-size="21.7" font-weight="600" text-anchor="middle" opacity="1.0">◀</text>
<circle cx="96.1" cy="554.0" r="101.5" fill="#3a3a44" stroke="#6a6a76" stroke-width="1.5" opacity="0.9"/>
<circle cx="96.1" cy="554.0" r="41.4" fill="#b8b8c4" stroke="#e0e0ea" stroke-width="1.5" opacity="0.9"/>
<text x="96.1" y="563.4" fill="#24242c" font-size="26.0" font-weight="600" text-anchor="middle" opacity="1.0">L</text>
<rect x="41.5" y="232.7" width="77.4" height="46.4" rx="12.1" fill="#8d8d99" stroke="#b5b5c0" stroke-width="1.5" opacity="0.9"/>
<text x="80.2" y="262.9" fill="#111116" font-size="19.5" font-weight="600" text-anchor="middle" opacity="1.0">ZL</text>
<rect x="128.9" y="254.9" width="77.4" height="46.4" rx="12.1" fill="#8d8d99" stroke="#b5b5c0" stroke-width="1.5" opacity="0.9"/>
<text x="167.5" y="285.2" fill="#111116" font-size="19.5" font-weight="600" text-anchor="middle" opacity="1.0">L</text>
<circle cx="218.6" cy="238.3" r="19.9" fill="#6e6e7a" stroke="#9a9aa6" stroke-width="1.5" opacity="0.9"/>
<text x="218.6" y="244.3" fill="#f2f2f6" font-size="16.7" font-weight="600" text-anchor="middle" opacity="1.0">−</text>
<circle cx="230.6" cy="320.7" r="19.9" fill="#6e6e7a" stroke="#9a9aa6" stroke-width="1.5" opacity="0.9"/>
<text x="230.6" y="326.8" fill="#f2f2f6" font-size="16.7" font-weight="600" text-anchor="middle" opacity="1.0">⌂</text>
<text x="12" y="734.0" fill="#8888a0" font-size="13">Arc - iPad mini - stacked</text>
</svg>
