<svg xmlns="http://www.w3.org/2000/svg" width="834" height="1194" viewBox="0 0 834.0 1194.0" font-family="-apple-system, Helvetica, sans-serif">
<rect width="100%" height="100%" fill="#101014"/>
<rect x="0.0" y="24.0" width="834.0" height="1150.0" fill="none" stroke="#2a2a33" stroke-dasharray="6 6"/>
<rect x="0.0" y="24.0" width="834.0" height="469.1" fill="#23324a"/>
<text x="417.0" y="258.6" fill="#4d6690" font-size="22" text-anchor="middle">TV</text>
<rect x="0.0" y="493.1" width="834.0" height="469.1" fill="#23324a"/>
<text x="417.0" y="727.7" fill="#4d6690" font-size="22" text-anchor="middle">GamePad</text>
<rect x="0.0" y="493.1" width="834.0" height="469.1" rx="6.0" fill="none" stroke="#4d6690" stroke-width="1.5" opacity="0.12"/>
<circle cx="751.1" cy="978.0" r="1.7" fill="#55555f" stroke="#8a8a96" stroke-width="1.5" opacity="0.3"/>
<circle cx="740.8" cy="982.1" r="1.7" fill="#55555f" stroke="#8a8a96" stroke-width="1.5" opacity="0.3"/>
<circle cx="730.7" cy="986.6" r="1.7" fill="#55555f" stroke="#8a8a96" stroke-width="1.5" opacity="0.3"/>
<circle cx="720.8" cy="991.6" r="1.7" fill="#55555f" stroke="#8a8a96" stroke-width="1.5" opacity="0.3"/>
<circle cx="711.2" cy="997.1" r="1.7" fill="#55555f" stroke="#8a8a96" stroke-width="1.5" opacity="0.3"/>
<circle cx="701.8" cy="1003.0" r="1.7" fill="#55555f" stroke="#8a8a96" stroke-width="1.5" opacity="0.3"/>
<circle cx="692.7" cy="1009.3" r="1.7" fill="#55555f" stroke="#8a8a96" stroke-width="1.5" opacity="0.3"/>
<circle cx="683.9" cy="1016.0" r="1.7" fill="#55555f" stroke="#8a8a96" stroke-width="1.5" opacity="0.3"/>
<circle cx="675.4" cy="1023.2" r="1.7" fill="#55555f" stroke="#8a8a96" stroke-width="1.5" opacity="0.3"/>
<circle cx="667.3" cy="1030.7" r="1.7" fill="#55555f" stroke="#8a8a96" stroke-width="1.5" opacity="0.3"/>
<circle cx="659.5" cy="1038.6" r="1.7" fill="#55555f" stroke="#8a8a96" stroke-width="1.5" opacity="0.3"/>
<circle cx="652.1" cy="1046.9" r="1.7" fill="#55555f" stroke="#8a8a96" stroke-width="1.5" opacity="0.3"/>
<circle cx="645.1" cy="1055.4" r="1.7" fill="#55555f" stroke="#8a8a96" stroke-width="1.5" opacity="0.3"/>
<circle cx="638.4" cy="1064.3" r="1.7" fill="#55555f" stroke="#8a8a96" stroke-width="1.5" opacity="0.3"/>
<circle cx="632.3" cy="1073.5" r="1.7" fill="#55555f" stroke="#8a8a96" stroke-width="1.5" opacity="0.3"/>
<circle cx="626.5" cy="1083.0" r="1.7" fill="#55555f" stroke="#8a8a96" stroke-width="1.5" opacity="0.3"/>
<circle cx="621.2" cy="1092.7" r="1.7" fill="#55555f" stroke="#8a8a96" stroke-width="1.5" opacity="0.3"/>
<circle cx="616.3" cy="1102.7" r="1.7" fill="#55555f" stroke="#8a8a96" stroke-width="1.5" opacity="0.3"/>
<circle cx="611.9" cy="1112.8" r="1.7" fill="#55555f" stroke="#8a8a96" stroke-width="1.5" opacity="0.3"/>
<circle cx="608.0" cy="1123.2" r="1.7" fill="#55555f" stroke="#8a8a96" stroke-width="1.5" opacity="0.3"/>
<circle cx="604.5" cy="1133.8" r="1.7" fill="#55555f" stroke="#8a8a96" stroke-width="1.5" opacity="0.3"/>
<circle cx="601.6" cy="1144.4" r="1.7" fill="#55555f" stroke="#8a8a96" stroke-width="1.5" opacity="0.3"/>
<circle cx="599.1" cy="1155.2" r="1.7" fill="#55555f" stroke="#8a8a96" stroke-width="1.5" opacity="0.3"/>
<circle cx="597.2" cy="1166.2" r="1.7" fill="#55555f" stroke="#8a8a96" stroke-width="1.5" opacity="0.3"/>
<circle cx="82.9" cy="978.0" r="1.7" fill="#55555f" stroke="#8a8a96" stroke-width="1.5" opacity="0.3"/>
<circle cx="93.2" cy="982.1" r="1.7" fill="#55555f" stroke="#8a8a96" stroke-width="1.5" opacity="0.3"/>
<circle cx="103.3" cy="986.6" r="1.7" fill="#55555f" stroke="#8a8a96" stroke-width="1.5" opacity="0.3"/>
<circle cx="113.2" cy="991.6" r="1.7" fill="#55555f" stroke="#8a8a96" stroke-width="1.5" opacity="0.3"/>
<circle cx="122.8" cy="997.1" r="1.7" fill="#55555f" stroke="#8a8a96" stroke-width="1.5" opacity="0.3"/>
<circle cx="132.2" cy="1003.0" r="1.7" fill="#55555f" stroke="#8a8a96" stroke-width="1.5" opacity="0.3"/>
<circle cx="141.3" cy="1009.3" r="1.7" fill="#55555f" stroke="#8a8a96" stroke-width="1.5" opacity="0.3"/>
<circle cx="150.1" cy="1016.0" r="1.7" fill="#55555f" stroke="#8a8a96" stroke-width="1.5" opacity="0.3"/>
<circle cx="158.6" cy="1023.2" r="1.7" fill="#55555f" stroke="#8a8a96" stroke-width="1.5" opacity="0.3"/>
<circle cx="166.7" cy="1030.7" r="1.7" fill="#55555f" stroke="#8a8a96" stroke-width="1.5" opacity="0.3"/>
<circle cx="174.5" cy="1038.6" r="1.7" fill="#55555f" stroke="#8a8a96" stroke-width="1.5" opacity="0.3"/>
<circle cx="181.9" cy="1046.9" r="1.7" fill="#55555f" stroke="#8a8a96" stroke-width="1.5" opacity="0.3"/>
<circle cx="188.9" cy="1055.4" r="1.7" fill="#55555f" stroke="#8a8a96" stroke-width="1.5" opacity="0.3"/>
<circle cx="195.6" cy="1064.3" r="1.7" fill="#55555f" stroke="#8a8a96" stroke-width="1.5" opacity="0.3"/>
<circle cx="201.7" cy="1073.5" r="1.7" fill="#55555f" stroke="#8a8a96" stroke-width="1.5" opacity="0.3"/>
<circle cx="207.5" cy="1083.0" r="1.7" fill="#55555f" stroke="#8a8a96" stroke-width="1.5" opacity="0.3"/>
<circle cx="212.8" cy="1092.7" r="1.7" fill="#55555f" stroke="#8a8a96" stroke-width="1.5" opacity="0.3"/>
<circle cx="217.7" cy="1102.7" r="1.7" fill="#55555f" stroke="#8a8a96" stroke-width="1.5" opacity="0.3"/>
<circle cx="222.1" cy="1112.8" r="1.7" fill="#55555f" stroke="#8a8a96" stroke-width="1.5" opacity="0.3"/>
<circle cx="226.0" cy="1123.2" r="1.7" fill="#55555f" stroke="#8a8a96" stroke-width="1.5" opacity="0.3"/>
<circle cx="229.5" cy="1133.8" r="1.7" fill="#55555f" stroke="#8a8a96" stroke-width="1.5" opacity="0.3"/>
<circle cx="232.4" cy="1144.4" r="1.7" fill="#55555f" stroke="#8a8a96" stroke-width="1.5" opacity="0.3"/>
<circle cx="234.9" cy="1155.2" r="1.7" fill="#55555f" stroke="#8a8a96" stroke-width="1.5" opacity="0.3"/>
<circle cx="236.8" cy="1166.2" r="1.7" fill="#55555f" stroke="#8a8a96" stroke-width="1.5" opacity="0.3"/>
<circle cx="689.1" cy="1011.9" r="18.5" fill="#e9e9ef" stroke="#ffffff" stroke-width="1.5" opacity="0.9"/>
<text x="689.1" y="1017.5" fill="#24242c" font-size="15.5" font-weight="600" text-anchor="middle" opacity="1.0">X</text>
<circle cx="654.5" cy="1044.1" r="18.5" fill="#e9e9ef" stroke="#ffffff" stroke-width="1.5" opacity="0.9"/>
<text x="654.5" y="1049.7" fill="#24242c" font-size="15.5" font-weight="600" text-anchor="middle" opacity="1.0">A</text>
<circle cx="626.9" cy="1082.3" r="18.5" fill="#e9e9ef" stroke="#ffffff" stroke-width="1.5" opacity="0.9"/>
<text x="626.9" y="1087.9" fill="#24242c" font-size="15.5" font-weight="600" text-anchor="middle" opacity="1.0">B</text>
<circle cx="607.3" cy="1125.3" r="18.5" fill="#e9e9ef" stroke="#ffffff" stroke-width="1.5" opacity="0.9"/>
<text x="607.3" y="1130.9" fill="#24242c" font-size="15.5" font-weight="600" text-anchor="middle" opacity="1.0">Y</text>
<circle cx="732.6" cy="1107.4" r="84.4" fill="#3a3a44" stroke="#6a6a76" stroke-width="1.5" opacity="0.9"/>
<circle cx="732.6" cy="1107.4" r="41.4" fill="#b8b8c4" stroke="#e0e0ea" stroke-width="1.5" opacity="0.9"/>
<text x="732.6" y="1116.8" fill="#24242c" font-size="26.0" font-weight="600" text-anchor="middle" opacity="1.0">R</text>
<rect x="764.5" y="969.3" width="55.4" height="33.3" rx="8.7" fill="#8d8d99" stroke="#b5b5c0" stroke-width="1.5" opacity="0.9"/>
<text x="792.2" y="990.9" fill="#111116" font-size="14.0" font-weight="600" text-anchor="middle" opacity="1.0">ZR</text>
<rect x="768.6" y="1007.9" width="55.4" height="33.3" rx="8.7" fill="#8d8d99" stroke="#b5b5c0" stroke-width="1.5" opacity="0.9"/>
<text x="796.3" y="1029.5" fill="#111116" font-size="14.0" font-weight="600" text-anchor="middle" opacity="1.0">R</text>
<circle cx="605.2" cy="986.2" r="14.3" fill="#6e6e7a" stroke="#9a9aa6" stroke-width="1.5" opacity="0.9"/>
<text x="605.2" y="990.5" fill="#f2f2f6" font-size="12.0" font-weight="600" text-anchor="middle" opacity="1.0">+</text>
<circle cx="144.9" cy="1011.9" r="18.5" fill="#c9c9d2" stroke="#ededf3" stroke-width="1.5" opacity="0.9"/>
<text x="144.9" y="1017.5" fill="#24242c" font-size="15.5" font-weight="600" text-anchor="middle" opacity="1.0">▲</text>
<circle cx="179.5" cy="1044.1" r="18.5" fill="#c9c9d2" stroke="#ededf3" stroke-width="1.5" opacity="0.9"/>
<text x="179.5" y="1049.7" fill="#24242c" font-size="15.5" font-weight="600" text-anchor="middle" opacity="1.0">▶</text>
<circle cx="207.1" cy="1082.3" r="18.5" fill="#c9c9d2" stroke="#ededf3" stroke-width="1.5" opacity="0.9"/>
<text x="207.1" y="1087.9" fill="#24242c" font-size="15.5" font-weight="600" text-anchor="middle" opacity="1.0">▼</text>
<circle cx="226.7" cy="1125.3" r="18.5" fill="#c9c9d2" stroke="#ededf3" stroke-width="1.5" opacity="0.9"/>
<text x="226.7" y="1130.9" fill="#24242c" font-size="15.5" font-weight="600" text-anchor="middle" opacity="1.0">◀</text>
<circle cx="101.4" cy="1107.4" r="84.4" fill="#3a3a44" stroke="#6a6a76" stroke-width="1.5" opacity="0.9"/>
<circle cx="101.4" cy="1107.4" r="41.4" fill="#b8b8c4" stroke="#e0e0ea" stroke-width="1.5" opacity="0.9"/>
<text x="101.4" y="1116.8" fill="#24242c" font-size="26.0" font-weight="600" text-anchor="middle" opacity="1.0">L</text>
<rect x="14.1" y="969.3" width="55.4" height="33.3" rx="8.7" fill="#8d8d99" stroke="#b5b5c0" stroke-width="1.5" opacity="0.9"/>
<text x="41.8" y="990.9" fill="#111116" font-size="14.0" font-weight="600" text-anchor="middle" opacity="1.0">ZL</text>
<rect x="10.0" y="1007.9" width="55.4" height="33.3" rx="8.7" fill="#8d8d99" stroke="#b5b5c0" stroke-width="1.5" opacity="0.9"/>
<text x="37.7" y="1029.5" fill="#111116" font-size="14.0" font-weight="600" text-anchor="middle" opacity="1.0">L</text>
<circle cx="228.8" cy="986.2" r="14.3" fill="#6e6e7a" stroke="#9a9aa6" stroke-width="1.5" opacity="0.9"/>
<text x="228.8" y="990.5" fill="#f2f2f6" font-size="12.0" font-weight="600" text-anchor="middle" opacity="1.0">−</text>
<circle cx="269.3" cy="980.8" r="14.3" fill="#6e6e7a" stroke="#9a9aa6" stroke-width="1.5" opacity="0.9"/>
<text x="269.3" y="985.1" fill="#f2f2f6" font-size="12.0" font-weight="600" text-anchor="middle" opacity="1.0">⌂</text>
<text x="12" y="1184.0" fill="#8888a0" font-size="13">Arc - iPad Pro 11 portrait - stacked</text>
</svg>
