<svg xmlns="http://www.w3.org/2000/svg" width="736" height="414" viewBox="0 0 736.0 414.0" font-family="-apple-system, Helvetica, sans-serif">
<rect width="100%" height="100%" fill="#101014"/>
<rect x="0.0" y="0.0" width="736.0" height="414.0" fill="none" stroke="#2a2a33" stroke-dasharray="6 6"/>
<rect x="0.0" y="0.0" width="736.0" height="414.0" fill="#23324a"/>
<text x="368.0" y="207.0" fill="#4d6690" font-size="22" text-anchor="middle">GamePad</text>
<rect x="0.0" y="0.0" width="736.0" height="414.0" rx="6.0" fill="none" stroke="#4d6690" stroke-width="1.5" opacity="0.12"/>
<circle cx="701.6" cy="187.9" r="1.7" fill="#55555f" stroke="#8a8a96" stroke-width="1.5" opacity="0.3"/>
<circle cx="690.4" cy="189.7" r="1.7" fill="#55555f" stroke="#8a8a96" stroke-width="1.5" opacity="0.3"/>
<circle cx="679.2" cy="192.1" r="1.7" fill="#55555f" stroke="#8a8a96" stroke-width="1.5" opacity="0.3"/>
<circle cx="668.1" cy="195.0" r="1.7" fill="#55555f" stroke="#8a8a96" stroke-width="1.5" opacity="0.3"/>
<circle cx="657.2" cy="198.3" r="1.7" fill="#55555f" stroke="#8a8a96" stroke-width="1.5" opacity="0.3"/>
<circle cx="646.5" cy="202.2" r="1.7" fill="#55555f" stroke="#8a8a96" stroke-width="1.5" opacity="0.3"/>
<circle cx="635.9" cy="206.6" r="1.7" fill="#55555f" stroke="#8a8a96" stroke-width="1.5" opacity="0.3"/>
<circle cx="625.6" cy="211.5" r="1.7" fill="#55555f" stroke="#8a8a96" stroke-width="1.5" opacity="0.3"/>
<circle cx="615.5" cy="216.8" r="1.7" fill="#55555f" stroke="#8a8a96" stroke-width="1.5" opacity="0.3"/>
<circle cx="605.6" cy="222.6" r="1.7" fill="#55555f" stroke="#8a8a96" stroke-width="1.5" opacity="0.3"/>
<circle cx="596.1" cy="228.8" r="1.7" fill="#55555f" stroke="#8a8a96" stroke-width="1.5" opacity="0.3"/>
<circle cx="586.8" cy="235.5" r="1.7" fill="#55555f" stroke="#8a8a96" stroke-width="1.5" opacity="0.3"/>
<circle cx="577.8" cy="242.6" r="1.7" fill="#55555f" stroke="#8a8a96" stroke-width="1.5" opacity="0.3"/>
<circle cx="569.2" cy="250.1" r="1.7" fill="#55555f" stroke="#8a8a96" stroke-width="1.5" opacity="0.3"/>
<circle cx="560.9" cy="258.0" r="1.7" fill="#55555f" stroke="#8a8a96" stroke-width="1.5" opacity="0.3"/>
<circle cx="553.0" cy="266.2" r="1.7" fill="#55555f" stroke="#8a8a96" stroke-width="1.5" opacity="0.3"/>
<circle cx="545.5" cy="274.9" r="1.7" fill="#55555f" stroke="#8a8a96" stroke-width="1.5" opacity="0.3"/>
<circle cx="538.5" cy="283.8" r="1.7" fill="#55555f" stroke="#8a8a96" stroke-width="1.5" opacity="0.3"/>
<circle cx="531.8" cy="293.1" r="1.7" fill="#55555f" stroke="#8a8a96" stroke-width="1.5" opacity="0.3"/>
<circle cx="525.5" cy="302.7" r="1.7" fill="#55555f" stroke="#8a8a96" stroke-width="1.5" opacity="0.3"/>
<circle cx="519.7" cy="312.5" r="1.7" fill="#55555f" stroke="#8a8a96" stroke-width="1.5" opacity="0.3"/>
<circle cx="514.4" cy="322.6" r="1.7" fill="#55555f" stroke="#8a8a96" stroke-width="1.5" opacity="0.3"/>
<circle cx="509.6" cy="333.0" r="1.7" fill="#55555f" stroke="#8a8a96" stroke-width="1.5" opacity="0.3"/>
<circle cx="505.2" cy="343.5" r="1.7" fill="#55555f" stroke="#8a8a96" stroke-width="1.5" opacity="0.3"/>
<circle cx="501.3" cy="354.3" r="1.7" fill="#55555f" stroke="#8a8a96" stroke-width="1.5" opacity="0.3"/>
<circle cx="497.9" cy="365.2" r="1.7" fill="#55555f" stroke="#8a8a96" stroke-width="1.5" opacity="0.3"/>
<circle cx="495.0" cy="376.2" r="1.7" fill="#55555f" stroke="#8a8a96" stroke-width="1.5" opacity="0.3"/>
<circle cx="492.7" cy="387.4" r="1.7" fill="#55555f" stroke="#8a8a96" stroke-width="1.5" opacity="0.3"/>
<circle cx="1.0" cy="185.5" r="1.7" fill="#55555f" stroke="#8a8a96" stroke-width="1.5" opacity="0.3"/>
<circle cx="12.4" cy="185.8" r="1.7" fill="#55555f" stroke="#8a8a96" stroke-width="1.5" opacity="0.3"/>
<circle cx="23.8" cy="186.6" r="1.7" fill="#55555f" stroke="#8a8a96" stroke-width="1.5" opacity="0.3"/>
<circle cx="35.1" cy="188.0" r="1.7" fill="#55555f" stroke="#8a8a96" stroke-width="1.5" opacity="0.3"/>
<circle cx="46.4" cy="189.9" r="1.7" fill="#55555f" stroke="#8a8a96" stroke-width="1.5" opacity="0.3"/>
<circle cx="57.6" cy="192.3" r="1.7" fill="#55555f" stroke="#8a8a96" stroke-width="1.5" opacity="0.3"/>
<circle cx="68.6" cy="195.2" r="1.7" fill="#55555f" stroke="#8a8a96" stroke-width="1.5" opacity="0.3"/>
<circle cx="79.5" cy="198.6" r="1.7" fill="#55555f" stroke="#8a8a96" stroke-width="1.5" opacity="0.3"/>
<circle cx="90.2" cy="202.5" r="1.7" fill="#55555f" stroke="#8a8a96" stroke-width="1.5" opacity="0.3"/>
<circle cx="100.8" cy="206.9" r="1.7" fill="#55555f" stroke="#8a8a96" stroke-width="1.5" opacity="0.3"/>
<circle cx="111.1" cy="211.8" r="1.7" fill="#55555f" stroke="#8a8a96" stroke-width="1.5" opacity="0.3"/>
<circle cx="121.2" cy="217.2" r="1.7" fill="#55555f" stroke="#8a8a96" stroke-width="1.5" opacity="0.3"/>
<circle cx="131.0" cy="223.0" r="1.7" fill="#55555f" stroke="#8a8a96" stroke-width="1.5" opacity="0.3"/>
<circle cx="140.6" cy="229.3" r="1.7" fill="#55555f" stroke="#8a8a96" stroke-width="1.5" opacity="0.3"/>
<circle cx="149.8" cy="236.0" r="1.7" fill="#55555f" stroke="#8a8a96" stroke-width="1.5" opacity="0.3"/>
<circle cx="158.8" cy="243.1" r="1.7" fill="#55555f" stroke="#8a8a96" stroke-width="1.5" opacity="0.3"/>
<circle cx="167.4" cy="250.6" r="1.7" fill="#55555f" stroke="#8a8a96" stroke-width="1.5" opacity="0.3"/>
<circle cx="175.6" cy="258.5" r="1.7" fill="#55555f" stroke="#8a8a96" stroke-width="1.5" opacity="0.3"/>
<circle cx="183.5" cy="266.8" r="1.7" fill="#55555f" stroke="#8a8a96" stroke-width="1.5" opacity="0.3"/>
<circle cx="190.9" cy="275.5" r="1.7" fill="#55555f" stroke="#8a8a96" stroke-width="1.5" opacity="0.3"/>
<circle cx="198.0" cy="284.4" r="1.7" fill="#55555f" stroke="#8a8a96" stroke-width="1.5" opacity="0.3"/>
<circle cx="204.7" cy="293.7" r="1.7" fill="#55555f" stroke="#8a8a96" stroke-width="1.5" opacity="0.3"/>
<circle cx="210.9" cy="303.3" r="1.7" fill="#55555f" stroke="#8a8a96" stroke-width="1.5" opacity="0.3"/>
<circle cx="216.6" cy="313.2" r="1.7" fill="#55555f" stroke="#8a8a96" stroke-width="1.5" opacity="0.3"/>
<circle cx="221.9" cy="323.3" r="1.7" fill="#55555f" stroke="#8a8a96" stroke-width="1.5" opacity="0.3"/>
<circle cx="625.6" cy="211.5" r="19.0" fill="#e9e9ef" stroke="#ffffff" stroke-width="1.5" opacity="0.9"/>
<text x="625.6" y="217.2" fill="#24242c" font-size="16.0" font-weight="600" text-anchor="middle" opacity="1.0">A</text>
<circle cx="580.8" cy="240.2" r="19.0" fill="#e9e9ef" stroke="#ffffff" stroke-width="1.5" opacity="0.9"/>
<text x="580.8" y="245.9" fill="#24242c" font-size="16.0" font-weight="600" text-anchor="middle" opacity="1.0">B</text>
<circle cx="543.1" cy="277.8" r="19.0" fill="#e9e9ef" stroke="#ffffff" stroke-width="1.5" opacity="0.9"/>
<text x="543.1" y="283.6" fill="#24242c" font-size="16.0" font-weight="600" text-anchor="middle" opacity="1.0">X</text>
<circle cx="514.4" cy="322.6" r="19.0" fill="#e9e9ef" stroke="#ffffff" stroke-width="1.5" opacity="0.9"/>
<text x="514.4" y="328.4" fill="#24242c" font-size="16.0" font-weight="600" text-anchor="middle" opacity="1.0">Y</text>
<circle cx="644.4" cy="341.5" r="71.7" fill="#3a3a44" stroke="#6a6a76" stroke-width="1.5" opacity="0.9"/>
<circle cx="644.4" cy="341.5" r="27.4" fill="#b8b8c4" stroke="#e0e0ea" stroke-width="1.5" opacity="0.9"/>
<text x="644.4" y="349.8" fill="#24242c" font-size="23.0" font-weight="600" text-anchor="middle" opacity="1.0">R</text>
<rect x="652.8" y="77.5" width="57.1" height="34.3" rx="9.0" fill="#8d8d99" stroke="#b5b5c0" stroke-width="1.5" opacity="0.9"/>
<text x="681.4" y="99.8" fill="#111116" font-size="14.4" font-weight="600" text-anchor="middle" opacity="1.0">ZR</text>
<rect x="588.5" y="94.4" width="57.1" height="34.3" rx="9.0" fill="#8d8d99" stroke="#b5b5c0" stroke-width="1.5" opacity="0.9"/>
<text x="617.0" y="116.7" fill="#111116" font-size="14.4" font-weight="600" text-anchor="middle" opacity="1.0">R</text>
<circle cx="557.2" cy="140.6" r="14.7" fill="#6e6e7a" stroke="#9a9aa6" stroke-width="1.5" opacity="0.9"/>
<text x="557.2" y="145.1" fill="#f2f2f6" font-size="12.4" font-weight="600" text-anchor="middle" opacity="1.0">+</text>
<circle cx="35.1" cy="188.0" r="19.0" fill="#c9c9d2" stroke="#ededf3" stroke-width="1.5" opacity="0.9"/>
<text x="35.1" y="193.7" fill="#24242c" font-size="16.0" font-weight="600" text-anchor="middle" opacity="1.0">▲</text>
<circle cx="86.7" cy="201.1" r="19.0" fill="#c9c9d2" stroke="#ededf3" stroke-width="1.5" opacity="0.9"/>
<text x="86.7" y="206.9" fill="#24242c" font-size="16.0" font-weight="600" text-anchor="middle" opacity="1.0">▶</text>
<circle cx="134.2" cy="225.0" r="19.0" fill="#c9c9d2" stroke="#ededf3" stroke-width="1.5" opacity="0.9"/>
<text x="134.2" y="230.8" fill="#24242c" font-size="16.0" font-weight="600" text-anchor="middle" opacity="1.0">▼</text>
<circle cx="175.6" cy="258.5" r="19.0" fill="#c9c9d2" stroke="#ededf3" stroke-width="1.5" opacity="0.9"/>
<text x="175.6" y="264.3" fill="#24242c" font-size="16.0" font-weight="600" text-anchor="middle" opacity="1.0">◀</text>
<circle cx="69.5" cy="317.3" r="71.7" fill="#3a3a44" stroke="#6a6a76" stroke-width="1.5" opacity="0.9"/>
<circle cx="69.5" cy="317.3" r="27.4" fill="#b8b8c4" stroke="#e0e0ea" stroke-width="1.5" opacity="0.9"/>
<text x="69.5" y="325.6" fill="#24242c" font-size="23.0" font-weight="600" text-anchor="middle" opacity="1.0">L</text>
<rect x="26.0" y="77.5" width="57.1" height="34.3" rx="9.0" fill="#8d8d99" stroke="#b5b5c0" stroke-width="1.5" opacity="0.9"/>
<text x="54.6" y="99.8" fill="#111116" font-size="14.4" font-weight="600" text-anchor="middle" opacity="1.0">ZL</text>
<rect x="90.4" y="94.4" width="57.1" height="34.3" rx="9.0" fill="#8d8d99" stroke="#b5b5c0" stroke-width="1.5" opacity="0.9"/>
<text x="119.0" y="116.7" fill="#111116" font-size="14.4" font-weight="600" text-anchor="middle" opacity="1.0">L</text>
<circle cx="178.8" cy="140.6" r="14.7" fill="#6e6e7a" stroke="#9a9aa6" stroke-width="1.5" opacity="0.9"/>
<text x="178.8" y="145.1" fill="#f2f2f6" font-size="12.4" font-weight="600" text-anchor="middle" opacity="1.0">−</text>
<circle cx="232.0" cy="180.7" r="14.7" fill="#6e6e7a" stroke="#9a9aa6" stroke-width="1.5" opacity="0.9"/>
<text x="232.0" y="185.1" fill="#f2f2f6" font-size="12.4" font-weight="600" text-anchor="middle" opacity="1.0">⌂</text>
<text x="12" y="404.0" fill="#8888a0" font-size="13">Arc - iPhone 8 Plus - single</text>
</svg>
