<svg xmlns="http://www.w3.org/2000/svg" width="1032" height="1376" viewBox="0 0 1032.0 1376.0" font-family="-apple-system, Helvetica, sans-serif">
<rect width="100%" height="100%" fill="#101014"/>
<rect x="0.0" y="24.0" width="1032.0" height="1332.0" fill="none" stroke="#2a2a33" stroke-dasharray="6 6"/>
<rect x="0.0" y="24.0" width="1032.0" height="580.5" fill="#23324a"/>
<text x="516.0" y="314.2" fill="#4d6690" font-size="22" text-anchor="middle">GamePad</text>
<rect x="0.0" y="24.0" width="1032.0" height="580.5" rx="6.0" fill="none" stroke="#4d6690" stroke-width="1.5" opacity="0.12"/>
<circle cx="1018.7" cy="1010.6" r="1.7" fill="#55555f" stroke="#8a8a96" stroke-width="1.5" opacity="0.3"/>
<circle cx="997.2" cy="1012.0" r="1.7" fill="#55555f" stroke="#8a8a96" stroke-width="1.5" opacity="0.3"/>
<circle cx="975.8" cy="1014.6" r="1.7" fill="#55555f" stroke="#8a8a96" stroke-width="1.5" opacity="0.3"/>
<circle cx="954.5" cy="1018.5" r="1.7" fill="#55555f" stroke="#8a8a96" stroke-width="1.5" opacity="0.3"/>
<circle cx="933.5" cy="1023.6" r="1.7" fill="#55555f" stroke="#8a8a96" stroke-width="1.5" opacity="0.3"/>
<circle cx="912.9" cy="1029.9" r="1.7" fill="#55555f" stroke="#8a8a96" stroke-width="1.5" opacity="0.3"/>
<circle cx="892.6" cy="1037.3" r="1.7" fill="#55555f" stroke="#8a8a96" stroke-width="1.5" opacity="0.3"/>
<circle cx="872.8" cy="1045.9" r="1.7" fill="#55555f" stroke="#8a8a96" stroke-width="1.5" opacity="0.3"/>
<circle cx="853.5" cy="1055.7" r="1.7" fill="#55555f" stroke="#8a8a96" stroke-width="1.5" opacity="0.3"/>
<circle cx="834.8" cy="1066.5" r="1.7" fill="#55555f" stroke="#8a8a96" stroke-width="1.5" opacity="0.3"/>
<circle cx="816.8" cy="1078.4" r="1.7" fill="#55555f" stroke="#8a8a96" stroke-width="1.5" opacity="0.3"/>
<circle cx="799.5" cy="1091.3" r="1.7" fill="#55555f" stroke="#8a8a96" stroke-width="1.5" opacity="0.3"/>
<circle cx="783.0" cy="1105.2" r="1.7" fill="#55555f" stroke="#8a8a96" stroke-width="1.5" opacity="0.3"/>
<circle cx="767.3" cy="1120.1" r="1.7" fill="#55555f" stroke="#8a8a96" stroke-width="1.5" opacity="0.3"/>
<circle cx="752.4" cy="1135.8" r="1.7" fill="#55555f" stroke="#8a8a96" stroke-width="1.5" opacity="0.3"/>
<circle cx="738.5" cy="1152.3" r="1.7" fill="#55555f" stroke="#8a8a96" stroke-width="1.5" opacity="0.3"/>
<circle cx="725.6" cy="1169.6" r="1.7" fill="#55555f" stroke="#8a8a96" stroke-width="1.5" opacity="0.3"/>
<circle cx="713.7" cy="1187.6" r="1.7" fill="#55555f" stroke="#8a8a96" stroke-width="1.5" opacity="0.3"/>
<circle cx="702.9" cy="1206.3" r="1.7" fill="#55555f" stroke="#8a8a96" stroke-width="1.5" opacity="0.3"/>
<circle cx="693.1" cy="1225.6" r="1.7" fill="#55555f" stroke="#8a8a96" stroke-width="1.5" opacity="0.3"/>
<circle cx="684.5" cy="1245.4" r="1.7" fill="#55555f" stroke="#8a8a96" stroke-width="1.5" opacity="0.3"/>
<circle cx="677.1" cy="1265.7" r="1.7" fill="#55555f" stroke="#8a8a96" stroke-width="1.5" opacity="0.3"/>
<circle cx="670.8" cy="1286.3" r="1.7" fill="#55555f" stroke="#8a8a96" stroke-width="1.5" opacity="0.3"/>
<circle cx="665.7" cy="1307.3" r="1.7" fill="#55555f" stroke="#8a8a96" stroke-width="1.5" opacity="0.3"/>
<circle cx="661.8" cy="1328.6" r="1.7" fill="#55555f" stroke="#8a8a96" stroke-width="1.5" opacity="0.3"/>
<circle cx="659.2" cy="1350.0" r="1.7" fill="#55555f" stroke="#8a8a96" stroke-width="1.5" opacity="0.3"/>
<circle cx="13.3" cy="1010.6" r="1.7" fill="#55555f" stroke="#8a8a96" stroke-width="1.5" opacity="0.3"/>
<circle cx="34.8" cy="1012.0" r="1.7" fill="#55555f" stroke="#8a8a96" stroke-width="1.5" opacity="0.3"/>
<circle cx="56.2" cy="1014.6" r="1.7" fill="#55555f" stroke="#8a8a96" stroke-width="1.5" opacity="0.3"/>
<circle cx="77.5" cy="1018.5" r="1.7" fill="#55555f" stroke="#8a8a96" stroke-width="1.5" opacity="0.3"/>
<circle cx="98.5" cy="1023.6" r="1.7" fill="#55555f" stroke="#8a8a96" stroke-width="1.5" opacity="0.3"/>
<circle cx="119.1" cy="1029.9" r="1.7" fill="#55555f" stroke="#8a8a96" stroke-width="1.5" opacity="0.3"/>
<circle cx="139.4" cy="1037.3" r="1.7" fill="#55555f" stroke="#8a8a96" stroke-width="1.5" opacity="0.3"/>
<circle cx="159.2" cy="1045.9" r="1.7" fill="#55555f" stroke="#8a8a96" stroke-width="1.5" opacity="0.3"/>
<circle cx="178.5" cy="1055.7" r="1.7" fill="#55555f" stroke="#8a8a96" stroke-width="1.5" opacity="0.3"/>
<circle cx="197.2" cy="1066.5" r="1.7" fill="#55555f" stroke="#8a8a96" stroke-width="1.5" opacity="0.3"/>
<circle cx="215.2" cy="1078.4" r="1.7" fill="#55555f" stroke="#8a8a96" stroke-width="1.5" opacity="0.3"/>
<circle cx="232.5" cy="1091.3" r="1.7" fill="#55555f" stroke="#8a8a96" stroke-width="1.5" opacity="0.3"/>
<circle cx="249.0" cy="1105.2" r="1.7" fill="#55555f" stroke="#8a8a96" stroke-width="1.5" opacity="0.3"/>
<circle cx="264.7" cy="1120.1" r="1.7" fill="#55555f" stroke="#8a8a96" stroke-width="1.5" opacity="0.3"/>
<circle cx="279.6" cy="1135.8" r="1.7" fill="#55555f" stroke="#8a8a96" stroke-width="1.5" opacity="0.3"/>
<circle cx="293.5" cy="1152.3" r="1.7" fill="#55555f" stroke="#8a8a96" stroke-width="1.5" opacity="0.3"/>
<circle cx="306.4" cy="1169.6" r="1.7" fill="#55555f" stroke="#8a8a96" stroke-width="1.5" opacity="0.3"/>
<circle cx="318.3" cy="1187.6" r="1.7" fill="#55555f" stroke="#8a8a96" stroke-width="1.5" opacity="0.3"/>
<circle cx="329.1" cy="1206.3" r="1.7" fill="#55555f" stroke="#8a8a96" stroke-width="1.5" opacity="0.3"/>
<circle cx="338.9" cy="1225.6" r="1.7" fill="#55555f" stroke="#8a8a96" stroke-width="1.5" opacity="0.3"/>
<circle cx="347.5" cy="1245.4" r="1.7" fill="#55555f" stroke="#8a8a96" stroke-width="1.5" opacity="0.3"/>
<circle cx="354.9" cy="1265.7" r="1.7" fill="#55555f" stroke="#8a8a96" stroke-width="1.5" opacity="0.3"/>
<circle cx="361.2" cy="1286.3" r="1.7" fill="#55555f" stroke="#8a8a96" stroke-width="1.5" opacity="0.3"/>
<circle cx="366.3" cy="1307.3" r="1.7" fill="#55555f" stroke="#8a8a96" stroke-width="1.5" opacity="0.3"/>
<circle cx="370.2" cy="1328.6" r="1.7" fill="#55555f" stroke="#8a8a96" stroke-width="1.5" opacity="0.3"/>
<circle cx="372.8" cy="1350.0" r="1.7" fill="#55555f" stroke="#8a8a96" stroke-width="1.5" opacity="0.3"/>
<circle cx="892.6" cy="1037.3" r="36.0" fill="#e9e9ef" stroke="#ffffff" stroke-width="1.5" opacity="0.9"/>
<text x="892.6" y="1046.7" fill="#24242c" font-size="26.0" font-weight="600" text-anchor="middle" opacity="1.0">A</text>
<circle cx="805.2" cy="1086.9" r="36.0" fill="#e9e9ef" stroke="#ffffff" stroke-width="1.5" opacity="0.9"/>
<text x="805.2" y="1096.3" fill="#24242c" font-size="26.0" font-weight="600" text-anchor="middle" opacity="1.0">B</text>
<circle cx="734.1" cy="1158.0" r="36.0" fill="#e9e9ef" stroke="#ffffff" stroke-width="1.5" opacity="0.9"/>
<text x="734.1" y="1167.3" fill="#24242c" font-size="26.0" font-weight="600" text-anchor="middle" opacity="1.0">X</text>
<circle cx="684.5" cy="1245.4" r="36.0" fill="#e9e9ef" stroke="#ffffff" stroke-width="1.5" opacity="0.9"/>
<text x="684.5" y="1254.7" fill="#24242c" font-size="26.0" font-weight="600" text-anchor="middle" opacity="1.0">Y</text>
<circle cx="925.1" cy="1234.7" r="110.2" fill="#3a3a44" stroke="#6a6a76" stroke-width="1.5" opacity="0.9"/>
<circle cx="925.1" cy="1234.7" r="41.4" fill="#b8b8c4" stroke="#e0e0ea" stroke-width="1.5" opacity="0.9"/>
<text x="925.1" y="1244.0" fill="#24242c" font-size="26.0" font-weight="600" text-anchor="middle" opacity="1.0">R</text>
<rect x="889.7" y="805.1" width="108.0" height="64.8" rx="16.9" fill="#8d8d99" stroke="#b5b5c0" stroke-width="1.5" opacity="0.9"/>
<text x="943.7" y="846.8" fill="#111116" font-size="26.0" font-weight="600" text-anchor="middle" opacity="1.0">ZR</text>
<rect x="768.6" y="839.1" width="108.0" height="64.8" rx="16.9" fill="#8d8d99" stroke="#b5b5c0" stroke-width="1.5" opacity="0.9"/>
<text x="822.6" y="880.8" fill="#111116" font-size="26.0" font-weight="600" text-anchor="middle" opacity="1.0">R</text>
<circle cx="712.3" cy="931.8" r="27.8" fill="#6e6e7a" stroke="#9a9aa6" stroke-width="1.5" opacity="0.9"/>
<text x="712.3" y="940.3" fill="#f2f2f6" font-size="23.4" font-weight="600" text-anchor="middle" opacity="1.0">+</text>
<circle cx="139.4" cy="1037.3" r="36.0" fill="#c9c9d2" stroke="#ededf3" stroke-width="1.5" opacity="0.9"/>
<text x="139.4" y="1046.7" fill="#24242c" font-size="26.0" font-weight="600" text-anchor="middle" opacity="1.0">▲</text>
<circle cx="226.8" cy="1086.9" r="36.0" fill="#c9c9d2" stroke="#ededf3" stroke-width="1.5" opacity="0.9"/>
<text x="226.8" y="1096.3" fill="#24242c" font-size="26.0" font-weight="600" text-anchor="middle" opacity="1.0">▶</text>
<circle cx="297.9" cy="1158.0" r="36.0" fill="#c9c9d2" stroke="#ededf3" stroke-width="1.5" opacity="0.9"/>
<text x="297.9" y="1167.3" fill="#24242c" font-size="26.0" font-weight="600" text-anchor="middle" opacity="1.0">▼</text>
<circle cx="347.5" cy="1245.4" r="36.0" fill="#c9c9d2" stroke="#ededf3" stroke-width="1.5" opacity="0.9"/>
<text x="347.5" y="1254.7" fill="#24242c" font-size="26.0" font-weight="600" text-anchor="middle" opacity="1.0">◀</text>
<circle cx="106.9" cy="1234.7" r="110.2" fill="#3a3a44" stroke="#6a6a76" stroke-width="1.5" opacity="0.9"/>
<circle cx="106.9" cy="1234.7" r="41.4" fill="#b8b8c4" stroke="#e0e0ea" stroke-width="1.5" opacity="0.9"/>
<text x="106.9" y="1244.0" fill="#24242c" font-size="26.0" font-weight="600" text-anchor="middle" opacity="1.0">L</text>
<rect x="34.3" y="805.1" width="108.0" height="64.8" rx="16.9" fill="#8d8d99" stroke="#b5b5c0" stroke-width="1.5" opacity="0.9"/>
<text x="88.3" y="846.8" fill="#111116" font-size="26.0" font-weight="600" text-anchor="middle" opacity="1.0">ZL</text>
<rect x="155.4" y="839.1" width="108.0" height="64.8" rx="16.9" fill="#8d8d99" stroke="#b5b5c0" stroke-width="1.5" opacity="0.9"/>
<text x="209.4" y="880.8" fill="#111116" font-size="26.0" font-weight="600" text-anchor="middle" opacity="1.0">L</text>
<circle cx="319.7" cy="931.8" r="27.8" fill="#6e6e7a" stroke="#9a9aa6" stroke-width="1.5" opacity="0.9"/>
<text x="319.7" y="940.3" fill="#f2f2f6" font-size="23.4" font-weight="600" text-anchor="middle" opacity="1.0">−</text>
<circle cx="413.5" cy="1015.5" r="27.8" fill="#6e6e7a" stroke="#9a9aa6" stroke-width="1.5" opacity="0.9"/>
<text x="413.5" y="1023.9" fill="#f2f2f6" font-size="23.4" font-weight="600" text-anchor="middle" opacity="1.0">⌂</text>
<text x="12" y="1366.0" fill="#8888a0" font-size="13">Arc - iPad Pro 13 portrait - single</text>
</svg>
