<svg xmlns="http://www.w3.org/2000/svg" width="1080" height="810" viewBox="0 0 1080.0 810.0" font-family="-apple-system, Helvetica, sans-serif">
<rect width="100%" height="100%" fill="#101014"/>
<rect x="0.0" y="0.0" width="1080.0" height="810.0" fill="none" stroke="#2a2a33" stroke-dasharray="6 6"/>
<rect x="180.0" y="0.0" width="720.0" height="405.0" fill="#23324a"/>
<text x="540.0" y="202.5" fill="#4d6690" font-size="22" text-anchor="middle">TV</text>
<rect x="180.0" y="405.0" width="720.0" height="405.0" fill="#23324a"/>
<text x="540.0" y="607.5" fill="#4d6690" font-size="22" text-anchor="middle">GamePad</text>
<rect x="180.0" y="405.0" width="720.0" height="405.0" rx="6.0" fill="none" stroke="#4d6690" stroke-width="1.5" opacity="0.12"/>
<circle cx="1074.1" cy="599.3" r="1.7" fill="#55555f" stroke="#8a8a96" stroke-width="1.5" opacity="0.3"/>
<circle cx="1063.0" cy="599.8" r="1.7" fill="#55555f" stroke="#8a8a96" stroke-width="1.5" opacity="0.3"/>
<circle cx="1052.0" cy="600.8" r="1.7" fill="#55555f" stroke="#8a8a96" stroke-width="1.5" opacity="0.3"/>
<circle cx="1041.0" cy="602.4" r="1.7" fill="#55555f" stroke="#8a8a96" stroke-width="1.5" opacity="0.3"/>
<circle cx="1030.1" cy="604.4" r="1.7" fill="#55555f" stroke="#8a8a96" stroke-width="1.5" opacity="0.3"/>
<circle cx="1019.4" cy="607.0" r="1.7" fill="#55555f" stroke="#8a8a96" stroke-width="1.5" opacity="0.3"/>
<circle cx="1008.7" cy="610.0" r="1.7" fill="#55555f" stroke="#8a8a96" stroke-width="1.5" opacity="0.3"/>
<circle cx="998.2" cy="613.6" r="1.7" fill="#55555f" stroke="#8a8a96" stroke-width="1.5" opacity="0.3"/>
<circle cx="987.9" cy="617.6" r="1.7" fill="#55555f" stroke="#8a8a96" stroke-width="1.5" opacity="0.3"/>
<circle cx="977.7" cy="622.1" r="1.7" fill="#55555f" stroke="#8a8a96" stroke-width="1.5" opacity="0.3"/>
<circle cx="967.8" cy="627.1" r="1.7" fill="#55555f" stroke="#8a8a96" stroke-width="1.5" opacity="0.3"/>
<circle cx="958.2" cy="632.5" r="1.7" fill="#55555f" stroke="#8a8a96" stroke-width="1.5" opacity="0.3"/>
<circle cx="948.7" cy="638.3" r="1.7" fill="#55555f" stroke="#8a8a96" stroke-width="1.5" opacity="0.3"/>
<circle cx="939.6" cy="644.6" r="1.7" fill="#55555f" stroke="#8a8a96" stroke-width="1.5" opacity="0.3"/>
<circle cx="930.8" cy="651.3" r="1.7" fill="#55555f" stroke="#8a8a96" stroke-width="1.5" opacity="0.3"/>
<circle cx="922.3" cy="658.4" r="1.7" fill="#55555f" stroke="#8a8a96" stroke-width="1.5" opacity="0.3"/>
<circle cx="914.1" cy="665.9" r="1.7" fill="#55555f" stroke="#8a8a96" stroke-width="1.5" opacity="0.3"/>
<circle cx="906.3" cy="673.8" r="1.7" fill="#55555f" stroke="#8a8a96" stroke-width="1.5" opacity="0.3"/>
<circle cx="5.9" cy="599.3" r="1.7" fill="#55555f" stroke="#8a8a96" stroke-width="1.5" opacity="0.3"/>
<circle cx="17.0" cy="599.8" r="1.7" fill="#55555f" stroke="#8a8a96" stroke-width="1.5" opacity="0.3"/>
<circle cx="28.0" cy="600.8" r="1.7" fill="#55555f" stroke="#8a8a96" stroke-width="1.5" opacity="0.3"/>
<circle cx="39.0" cy="602.4" r="1.7" fill="#55555f" stroke="#8a8a96" stroke-width="1.5" opacity="0.3"/>
<circle cx="49.9" cy="604.4" r="1.7" fill="#55555f" stroke="#8a8a96" stroke-width="1.5" opacity="0.3"/>
<circle cx="60.6" cy="607.0" r="1.7" fill="#55555f" stroke="#8a8a96" stroke-width="1.5" opacity="0.3"/>
<circle cx="71.3" cy="610.0" r="1.7" fill="#55555f" stroke="#8a8a96" stroke-width="1.5" opacity="0.3"/>
<circle cx="81.8" cy="613.6" r="1.7" fill="#55555f" stroke="#8a8a96" stroke-width="1.5" opacity="0.3"/>
<circle cx="92.1" cy="617.6" r="1.7" fill="#55555f" stroke="#8a8a96" stroke-width="1.5" opacity="0.3"/>
<circle cx="102.3" cy="622.1" r="1.7" fill="#55555f" stroke="#8a8a96" stroke-width="1.5" opacity="0.3"/>
<circle cx="112.2" cy="627.1" r="1.7" fill="#55555f" stroke="#8a8a96" stroke-width="1.5" opacity="0.3"/>
<circle cx="121.8" cy="632.5" r="1.7" fill="#55555f" stroke="#8a8a96" stroke-width="1.5" opacity="0.3"/>
<circle cx="131.3" cy="638.3" r="1.7" fill="#55555f" stroke="#8a8a96" stroke-width="1.5" opacity="0.3"/>
<circle cx="140.4" cy="644.6" r="1.7" fill="#55555f" stroke="#8a8a96" stroke-width="1.5" opacity="0.3"/>
<circle cx="149.2" cy="651.3" r="1.7" fill="#55555f" stroke="#8a8a96" stroke-width="1.5" opacity="0.3"/>
<circle cx="157.7" cy="658.4" r="1.7" fill="#55555f" stroke="#8a8a96" stroke-width="1.5" opacity="0.3"/>
<circle cx="165.9" cy="665.9" r="1.7" fill="#55555f" stroke="#8a8a96" stroke-width="1.5" opacity="0.3"/>
<circle cx="173.7" cy="673.8" r="1.7" fill="#55555f" stroke="#8a8a96" stroke-width="1.5" opacity="0.3"/>
<circle cx="1058.6" cy="600.1" r="18.5" fill="#e9e9ef" stroke="#ffffff" stroke-width="1.5" opacity="0.9"/>
<text x="1058.6" y="605.7" fill="#24242c" font-size="15.5" font-weight="600" text-anchor="middle" opacity="1.0">X</text>
<circle cx="1012.2" cy="609.0" r="18.5" fill="#e9e9ef" stroke="#ffffff" stroke-width="1.5" opacity="0.9"/>
<text x="1012.2" y="614.6" fill="#24242c" font-size="15.5" font-weight="600" text-anchor="middle" opacity="1.0">A</text>
<circle cx="968.5" cy="626.7" r="18.5" fill="#e9e9ef" stroke="#ffffff" stroke-width="1.5" opacity="0.9"/>
<text x="968.5" y="632.3" fill="#24242c" font-size="15.5" font-weight="600" text-anchor="middle" opacity="1.0">B</text>
<circle cx="929.1" cy="652.7" r="18.5" fill="#e9e9ef" stroke="#ffffff" stroke-width="1.5" opacity="0.9"/>
<text x="929.1" y="658.3" fill="#24242c" font-size="15.5" font-weight="600" text-anchor="middle" opacity="1.0">Y</text>
<circle cx="1010.8" cy="722.9" r="84.4" fill="#3a3a44" stroke="#6a6a76" stroke-width="1.5" opacity="0.9"/>
<circle cx="1010.8" cy="722.9" r="41.4" fill="#b8b8c4" stroke="#e0e0ea" stroke-width="1.5" opacity="0.9"/>
<text x="1010.8" y="732.3" fill="#24242c" font-size="26.0" font-weight="600" text-anchor="middle" opacity="1.0">R</text>
<rect x="999.4" y="494.4" width="55.4" height="33.3" rx="8.7" fill="#8d8d99" stroke="#b5b5c0" stroke-width="1.5" opacity="0.9"/>
<text x="1027.1" y="516.1" fill="#111116" font-size="14.0" font-weight="600" text-anchor="middle" opacity="1.0">ZR</text>
<rect x="937.0" y="510.9" width="55.4" height="33.3" rx="8.7" fill="#8d8d99" stroke="#b5b5c0" stroke-width="1.5" opacity="0.9"/>
<text x="964.7" y="532.5" fill="#111116" font-size="14.0" font-weight="600" text-anchor="middle" opacity="1.0">R</text>
<circle cx="917.7" cy="555.7" r="14.3" fill="#6e6e7a" stroke="#9a9aa6" stroke-width="1.5" opacity="0.9"/>
<text x="917.7" y="560.0" fill="#f2f2f6" font-size="12.0" font-weight="600" text-anchor="middle" opacity="1.0">+</text>
<circle cx="21.4" cy="600.1" r="18.5" fill="#c9c9d2" stroke="#ededf3" stroke-width="1.5" opacity="0.9"/>
<text x="21.4" y="605.7" fill="#24242c" font-size="15.5" font-weight="600" text-anchor="middle" opacity="1.0">▲</text>
<circle cx="67.8" cy="609.0" r="18.5" fill="#c9c9d2" stroke="#ededf3" stroke-width="1.5" opacity="0.9"/>
<text x="67.8" y="614.6" fill="#24242c" font-size="15.5" font-weight="600" text-anchor="middle" opacity="1.0">▶</text>
<circle cx="111.5" cy="626.7" r="18.5" fill="#c9c9d2" stroke="#ededf3" stroke-width="1.5" opacity="0.9"/>
<text x="111.5" y="632.3" fill="#24242c" font-size="15.5" font-weight="600" text-anchor="middle" opacity="1.0">▼</text>
<circle cx="150.9" cy="652.7" r="18.5" fill="#c9c9d2" stroke="#ededf3" stroke-width="1.5" opacity="0.9"/>
<text x="150.9" y="658.3" fill="#24242c" font-size="15.5" font-weight="600" text-anchor="middle" opacity="1.0">◀</text>
<circle cx="69.2" cy="722.9" r="84.4" fill="#3a3a44" stroke="#6a6a76" stroke-width="1.5" opacity="0.9"/>
<circle cx="69.2" cy="722.9" r="41.4" fill="#b8b8c4" stroke="#e0e0ea" stroke-width="1.5" opacity="0.9"/>
<text x="69.2" y="732.3" fill="#24242c" font-size="26.0" font-weight="600" text-anchor="middle" opacity="1.0">L</text>
<rect x="25.2" y="494.4" width="55.4" height="33.3" rx="8.7" fill="#8d8d99" stroke="#b5b5c0" stroke-width="1.5" opacity="0.9"/>
<text x="52.9" y="516.1" fill="#111116" font-size="14.0" font-weight="600" text-anchor="middle" opacity="1.0">ZL</text>
<rect x="87.6" y="510.9" width="55.4" height="33.3" rx="8.7" fill="#8d8d99" stroke="#b5b5c0" stroke-width="1.5" opacity="0.9"/>
<text x="115.3" y="532.5" fill="#111116" font-size="14.0" font-weight="600" text-anchor="middle" opacity="1.0">L</text>
<circle cx="162.3" cy="555.7" r="14.3" fill="#6e6e7a" stroke="#9a9aa6" stroke-width="1.5" opacity="0.9"/>
<text x="162.3" y="560.0" fill="#f2f2f6" font-size="12.0" font-weight="600" text-anchor="middle" opacity="1.0">−</text>
<circle cx="158.4" cy="505.9" r="14.3" fill="#6e6e7a" stroke="#9a9aa6" stroke-width="1.5" opacity="0.9"/>
<text x="158.4" y="510.2" fill="#f2f2f6" font-size="12.0" font-weight="600" text-anchor="middle" opacity="1.0">⌂</text>
<text x="12" y="800.0" fill="#8888a0" font-size="13">Arc - iPad 9th gen - stacked</text>
</svg>
