<svg xmlns="http://www.w3.org/2000/svg" width="1133" height="744" viewBox="0 0 1133.0 744.0" font-family="-apple-system, Helvetica, sans-serif">
<rect width="100%" height="100%" fill="#101014"/>
<rect x="0.0" y="24.0" width="1133.0" height="700.0" fill="none" stroke="#2a2a33" stroke-dasharray="6 6"/>
<rect x="0.0" y="55.3" width="1133.0" height="637.3" fill="#23324a"/>
<text x="566.5" y="374.0" fill="#4d6690" font-size="22" text-anchor="middle">GamePad</text>
<rect x="0.0" y="55.3" width="1133.0" height="637.3" rx="6.0" fill="none" stroke="#4d6690" stroke-width="1.5" opacity="0.12"/>
<rect x="14.4" y="38.4" width="165.6" height="82.8" rx="16.9" fill="#8d8d99" stroke="#b5b5c0" stroke-width="1.5" opacity="0.9"/>
<text x="97.2" y="89.2" fill="#111116" font-size="26.0" font-weight="600" text-anchor="middle" opacity="1.0">ZL</text>
<rect x="198.0" y="38.4" width="165.6" height="82.8" rx="16.9" fill="#8d8d99" stroke="#b5b5c0" stroke-width="1.5" opacity="0.9"/>
<text x="280.8" y="89.2" fill="#111116" font-size="26.0" font-weight="600" text-anchor="middle" opacity="1.0">L</text>
<rect x="953.0" y="38.4" width="165.6" height="82.8" rx="16.9" fill="#8d8d99" stroke="#b5b5c0" stroke-width="1.5" opacity="0.9"/>
<text x="1035.8" y="89.2" fill="#111116" font-size="26.0" font-weight="600" text-anchor="middle" opacity="1.0">ZR</text>
<rect x="769.4" y="38.4" width="165.6" height="82.8" rx="16.9" fill="#8d8d99" stroke="#b5b5c0" stroke-width="1.5" opacity="0.9"/>
<text x="852.2" y="89.2" fill="#111116" font-size="26.0" font-weight="600" text-anchor="middle" opacity="1.0">R</text>
<circle cx="472.9" cy="79.8" r="27.8" fill="#6e6e7a" stroke="#9a9aa6" stroke-width="1.5" opacity="0.9"/>
<text x="472.9" y="88.2" fill="#f2f2f6" font-size="23.4" font-weight="600" text-anchor="middle" opacity="1.0">−</text>
<circle cx="566.5" cy="79.8" r="27.8" fill="#6e6e7a" stroke="#9a9aa6" stroke-width="1.5" opacity="0.9"/>
<text x="566.5" y="88.2" fill="#f2f2f6" font-size="23.4" font-weight="600" text-anchor="middle" opacity="1.0">⌂</text>
<circle cx="660.1" cy="79.8" r="27.8" fill="#6e6e7a" stroke="#9a9aa6" stroke-width="1.5" opacity="0.9"/>
<text x="660.1" y="88.2" fill="#f2f2f6" font-size="23.4" font-weight="600" text-anchor="middle" opacity="1.0">+</text>
<rect x="96.7" y="176.0" width="51.8" height="51.8" rx="14.5" fill="#c9c9d2" stroke="#ededf3" stroke-width="1.5" opacity="0.9"/>
<text x="122.6" y="209.8" fill="#24242c" font-size="21.8" font-weight="600" text-anchor="middle" opacity="1.0">▲</text>
<rect x="96.7" y="295.8" width="51.8" height="51.8" rx="14.5" fill="#c9c9d2" stroke="#ededf3" stroke-width="1.5" opacity="0.9"/>
<text x="122.6" y="329.5" fill="#24242c" font-size="21.8" font-weight="600" text-anchor="middle" opacity="1.0">▼</text>
<rect x="32.4" y="235.9" width="51.8" height="51.8" rx="14.5" fill="#c9c9d2" stroke="#ededf3" stroke-width="1.5" opacity="0.9"/>
<text x="58.3" y="269.6" fill="#24242c" font-size="21.8" font-weight="600" text-anchor="middle" opacity="1.0">◀</text>
<rect x="161.0" y="235.9" width="51.8" height="51.8" rx="14.5" fill="#c9c9d2" stroke="#ededf3" stroke-width="1.5" opacity="0.9"/>
<text x="186.9" y="269.6" fill="#24242c" font-size="21.8" font-weight="600" text-anchor="middle" opacity="1.0">▶</text>
<rect x="0.0" y="382.0" width="475.9" height="342.0" rx="0.0" fill="#7fa8ff" stroke="#7fa8ff" stroke-width="1.5" opacity="0.12"/>
<rect x="657.1" y="146.4" width="475.9" height="577.6" rx="0.0" fill="#7fa8ff" stroke="#7fa8ff" stroke-width="1.5" opacity="0.12"/>
<circle cx="967.3" cy="481.8" r="33.1" fill="#e9e9ef" stroke="#ffffff" stroke-width="1.5" opacity="0.9"/>
<text x="967.3" y="491.2" fill="#24242c" font-size="26.0" font-weight="600" text-anchor="middle" opacity="1.0">X</text>
<circle cx="885.2" cy="558.3" r="33.1" fill="#e9e9ef" stroke="#ffffff" stroke-width="1.5" opacity="0.9"/>
<text x="885.2" y="567.7" fill="#24242c" font-size="26.0" font-weight="600" text-anchor="middle" opacity="1.0">Y</text>
<circle cx="1049.5" cy="558.3" r="33.1" fill="#e9e9ef" stroke="#ffffff" stroke-width="1.5" opacity="0.9"/>
<text x="1049.5" y="567.7" fill="#24242c" font-size="26.0" font-weight="600" text-anchor="middle" opacity="1.0">A</text>
<circle cx="967.3" cy="634.8" r="33.1" fill="#e9e9ef" stroke="#ffffff" stroke-width="1.5" opacity="0.9"/>
<text x="967.3" y="644.2" fill="#24242c" font-size="26.0" font-weight="600" text-anchor="middle" opacity="1.0">B</text>
<text x="12" y="734.0" fill="#8888a0" font-size="13">Float - iPad mini - single</text>
</svg>
