<svg xmlns="http://www.w3.org/2000/svg" width="736" height="414" viewBox="0 0 736.0 414.0" font-family="-apple-system, Helvetica, sans-serif">
<rect width="100%" height="100%" fill="#101014"/>
<rect x="0.0" y="0.0" width="736.0" height="414.0" fill="none" stroke="#2a2a33" stroke-dasharray="6 6"/>
<rect x="0.0" y="0.0" width="736.0" height="414.0" fill="#23324a"/>
<text x="368.0" y="207.0" fill="#4d6690" font-size="22" text-anchor="middle">GamePad</text>
<rect x="0.0" y="0.0" width="736.0" height="414.0" rx="6.0" fill="none" stroke="#4d6690" stroke-width="1.5" opacity="0.12"/>
<rect x="608.6" y="305.7" width="126.2" height="107.1" rx="14.3" fill="#d9d9e2" stroke="#ffffff" stroke-width="1.5" opacity="0.5"/>
<text x="671.7" y="368.6" fill="#24242c" font-size="26.0" font-weight="600" text-anchor="middle" opacity="1.0">A</text>
<rect x="522.9" y="234.3" width="83.3" height="178.5" rx="14.3" fill="#d9d9e2" stroke="#ffffff" stroke-width="1.5" opacity="0.5"/>
<text x="564.6" y="332.9" fill="#24242c" font-size="26.0" font-weight="600" text-anchor="middle" opacity="1.0">B</text>
<rect x="608.6" y="234.3" width="126.2" height="69.0" rx="14.3" fill="#d9d9e2" stroke="#ffffff" stroke-width="1.5" opacity="0.5"/>
<text x="671.7" y="278.1" fill="#24242c" font-size="26.0" font-weight="600" text-anchor="middle" opacity="1.0">A+R</text>
<rect x="522.9" y="172.4" width="211.9" height="59.5" rx="14.3" fill="#d9d9e2" stroke="#ffffff" stroke-width="1.5" opacity="0.5"/>
<text x="628.9" y="211.1" fill="#24242c" font-size="25.0" font-weight="600" text-anchor="middle" opacity="1.0">R</text>
<rect x="352.9" y="223.6" width="80.9" height="59.5" rx="14.3" fill="#8d8d99" stroke="#b5b5c0" stroke-width="1.5" opacity="0.9"/>
<text x="393.4" y="262.3" fill="#111116" font-size="25.0" font-weight="600" text-anchor="middle" opacity="1.0">L</text>
<rect x="1.2" y="104.7" width="262.6" height="308.1" rx="14.3" fill="#7fa8ff" stroke="#9bbcff" stroke-width="1.5" opacity="0.22"/>
<text x="132.5" y="268.1" fill="#c4d6ff" font-size="26.0" font-weight="600" text-anchor="middle" opacity="1.0">STEER</text>
<circle cx="306.1" cy="28.6" r="18.4" fill="#6e6e7a" stroke="#9a9aa6" stroke-width="1.5" opacity="0.9"/>
<text x="306.1" y="34.1" fill="#f2f2f6" font-size="15.5" font-weight="600" text-anchor="middle" opacity="1.0">X</text>
<circle cx="368.0" cy="28.6" r="18.4" fill="#6e6e7a" stroke="#9a9aa6" stroke-width="1.5" opacity="0.9"/>
<text x="368.0" y="34.1" fill="#f2f2f6" font-size="15.5" font-weight="600" text-anchor="middle" opacity="1.0">+</text>
<circle cx="429.9" cy="28.6" r="18.4" fill="#6e6e7a" stroke="#9a9aa6" stroke-width="1.5" opacity="0.9"/>
<text x="429.9" y="34.1" fill="#f2f2f6" font-size="15.5" font-weight="600" text-anchor="middle" opacity="1.0">⌂</text>
<text x="12" y="404.0" fill="#8888a0" font-size="13">Racing - iPhone 8 Plus - single</text>
</svg>
