<svg xmlns="http://www.w3.org/2000/svg" width="834" height="1194" viewBox="0 0 834.0 1194.0" font-family="-apple-system, Helvetica, sans-serif">
<rect width="100%" height="100%" fill="#101014"/>
<rect x="0.0" y="24.0" width="834.0" height="1150.0" fill="none" stroke="#2a2a33" stroke-dasharray="6 6"/>
<rect x="0.0" y="24.0" width="834.0" height="469.1" fill="#23324a"/>
<text x="417.0" y="258.6" fill="#4d6690" font-size="22" text-anchor="middle">GamePad</text>
<rect x="0.0" y="24.0" width="834.0" height="469.1" rx="6.0" fill="none" stroke="#4d6690" stroke-width="1.5" opacity="0.12"/>
<rect x="641.4" y="1010.2" width="190.8" height="162.0" rx="21.6" fill="#d9d9e2" stroke="#ffffff" stroke-width="1.5" opacity="0.5"/>
<text x="736.8" y="1100.6" fill="#24242c" font-size="26.0" font-weight="600" text-anchor="middle" opacity="1.0">A</text>
<rect x="511.8" y="902.2" width="126.0" height="270.0" rx="21.6" fill="#d9d9e2" stroke="#ffffff" stroke-width="1.5" opacity="0.5"/>
<text x="574.8" y="1046.6" fill="#24242c" font-size="26.0" font-weight="600" text-anchor="middle" opacity="1.0">B</text>
<rect x="641.4" y="902.2" width="190.8" height="104.4" rx="21.6" fill="#d9d9e2" stroke="#ffffff" stroke-width="1.5" opacity="0.5"/>
<text x="736.8" y="963.8" fill="#24242c" font-size="26.0" font-weight="600" text-anchor="middle" opacity="1.0">A+R</text>
<rect x="511.8" y="808.6" width="320.4" height="90.0" rx="21.6" fill="#d9d9e2" stroke="#ffffff" stroke-width="1.5" opacity="0.5"/>
<text x="672.0" y="863.0" fill="#24242c" font-size="26.0" font-weight="600" text-anchor="middle" opacity="1.0">R</text>
<rect x="343.9" y="886.0" width="122.4" height="90.0" rx="21.6" fill="#8d8d99" stroke="#b5b5c0" stroke-width="1.5" opacity="0.9"/>
<text x="405.1" y="940.4" fill="#111116" font-size="26.0" font-weight="600" text-anchor="middle" opacity="1.0">L</text>
<rect x="1.8" y="612.8" width="296.6" height="559.4" rx="21.6" fill="#7fa8ff" stroke="#9bbcff" stroke-width="1.5" opacity="0.22"/>
<text x="150.1" y="901.8" fill="#c4d6ff" font-size="26.0" font-weight="600" text-anchor="middle" opacity="1.0">STEER</text>
<circle cx="323.4" cy="605.2" r="27.8" fill="#6e6e7a" stroke="#9a9aa6" stroke-width="1.5" opacity="0.9"/>
<text x="323.4" y="613.6" fill="#f2f2f6" font-size="23.4" font-weight="600" text-anchor="middle" opacity="1.0">X</text>
<circle cx="417.0" cy="605.2" r="27.8" fill="#6e6e7a" stroke="#9a9aa6" stroke-width="1.5" opacity="0.9"/>
<text x="417.0" y="613.6" fill="#f2f2f6" font-size="23.4" font-weight="600" text-anchor="middle" opacity="1.0">+</text>
<circle cx="510.6" cy="605.2" r="27.8" fill="#6e6e7a" stroke="#9a9aa6" stroke-width="1.5" opacity="0.9"/>
<text x="510.6" y="613.6" fill="#f2f2f6" font-size="23.4" font-weight="600" text-anchor="middle" opacity="1.0">⌂</text>
<text x="12" y="1184.0" fill="#8888a0" font-size="13">Racing - iPad Pro 11 portrait - single</text>
</svg>
